G04 #@! TF.GenerationSoftware,KiCad,Pcbnew,5.0.1*
G04 #@! TF.CreationDate,2018-11-13T22:10:38+00:00*
G04 #@! TF.ProjectId,ESP8266-WS2812B,455350383236362D575332383132422E,rev?*
G04 #@! TF.SameCoordinates,Original*
G04 #@! TF.FileFunction,Legend,Top*
G04 #@! TF.FilePolarity,Positive*
%FSLAX46Y46*%
G04 Gerber Fmt 4.6, Leading zero omitted, Abs format (unit mm)*
G04 Created by KiCad (PCBNEW 5.0.1) date Tue 13 Nov 2018 22:10:38 GMT*
%MOMM*%
%LPD*%
G01*
G04 APERTURE LIST*
%ADD10C,0.200000*%
%ADD11C,0.120000*%
%ADD12C,0.150000*%
G04 APERTURE END LIST*
D10*
X134300000Y-139100000D02*
X134700000Y-139100000D01*
X134100000Y-138700000D02*
X134900000Y-138700000D01*
X133900000Y-138300000D02*
X135200000Y-138300000D01*
X134500000Y-137400000D02*
X134500000Y-138300000D01*
X132800000Y-137400000D02*
X134500000Y-137400000D01*
X127600000Y-137600000D02*
X125800000Y-137600000D01*
X124509523Y-137052380D02*
X124033333Y-137052380D01*
X123985714Y-137528571D01*
X124033333Y-137480952D01*
X124128571Y-137433333D01*
X124366666Y-137433333D01*
X124461904Y-137480952D01*
X124509523Y-137528571D01*
X124557142Y-137623809D01*
X124557142Y-137861904D01*
X124509523Y-137957142D01*
X124461904Y-138004761D01*
X124366666Y-138052380D01*
X124128571Y-138052380D01*
X124033333Y-138004761D01*
X123985714Y-137957142D01*
X124842857Y-137052380D02*
X125176190Y-138052380D01*
X125509523Y-137052380D01*
X151009523Y-141252380D02*
X150533333Y-141252380D01*
X150485714Y-141728571D01*
X150533333Y-141680952D01*
X150628571Y-141633333D01*
X150866666Y-141633333D01*
X150961904Y-141680952D01*
X151009523Y-141728571D01*
X151057142Y-141823809D01*
X151057142Y-142061904D01*
X151009523Y-142157142D01*
X150961904Y-142204761D01*
X150866666Y-142252380D01*
X150628571Y-142252380D01*
X150533333Y-142204761D01*
X150485714Y-142157142D01*
X151342857Y-141252380D02*
X151676190Y-142252380D01*
X152009523Y-141252380D01*
X151300000Y-139700000D02*
X151300000Y-140900000D01*
X152300000Y-139700000D02*
X151300000Y-139700000D01*
X154300000Y-139700000D02*
X152300000Y-139700000D01*
X154300000Y-138300000D02*
X154300000Y-139700000D01*
X102000000Y-108900000D02*
X102600000Y-108900000D01*
X101800000Y-109300000D02*
X102800000Y-109300000D01*
X101600000Y-109700000D02*
X103000000Y-109700000D01*
X102300000Y-110400000D02*
X102300000Y-109700000D01*
X103700000Y-110400000D02*
X102300000Y-110400000D01*
X103700000Y-112300000D02*
X103700000Y-110400000D01*
X153900000Y-127500000D02*
X154800000Y-127500000D01*
X153600000Y-128000000D02*
X155100000Y-128000000D01*
X153400000Y-128500000D02*
X155300000Y-128500000D01*
X154300000Y-131100000D02*
X154300000Y-128600000D01*
D11*
G04 #@! TO.C,C1*
X144350000Y-137776000D02*
X145650000Y-137776000D01*
X145000000Y-138376000D02*
X145000000Y-137176000D01*
X144646000Y-132615000D02*
X145354000Y-132615000D01*
X144441000Y-132655000D02*
X145559000Y-132655000D01*
X144293000Y-132695000D02*
X145707000Y-132695000D01*
X144171000Y-132735000D02*
X145829000Y-132735000D01*
X144066000Y-132775000D02*
X145934000Y-132775000D01*
X143972000Y-132815000D02*
X146028000Y-132815000D01*
X143888000Y-132855000D02*
X146112000Y-132855000D01*
X143811000Y-132895000D02*
X146189000Y-132895000D01*
X143739000Y-132935000D02*
X146261000Y-132935000D01*
X143673000Y-132975000D02*
X146327000Y-132975000D01*
X143610000Y-133015000D02*
X146390000Y-133015000D01*
X143552000Y-133055000D02*
X146448000Y-133055000D01*
X143496000Y-133095000D02*
X146504000Y-133095000D01*
X143444000Y-133135000D02*
X146556000Y-133135000D01*
X143394000Y-133175000D02*
X146606000Y-133175000D01*
X145980000Y-133215000D02*
X146654000Y-133215000D01*
X143346000Y-133215000D02*
X144020000Y-133215000D01*
X145980000Y-133255000D02*
X146699000Y-133255000D01*
X143301000Y-133255000D02*
X144020000Y-133255000D01*
X145980000Y-133295000D02*
X146742000Y-133295000D01*
X143258000Y-133295000D02*
X144020000Y-133295000D01*
X145980000Y-133335000D02*
X146783000Y-133335000D01*
X143217000Y-133335000D02*
X144020000Y-133335000D01*
X145980000Y-133375000D02*
X146823000Y-133375000D01*
X143177000Y-133375000D02*
X144020000Y-133375000D01*
X145980000Y-133415000D02*
X146861000Y-133415000D01*
X143139000Y-133415000D02*
X144020000Y-133415000D01*
X145980000Y-133455000D02*
X146897000Y-133455000D01*
X143103000Y-133455000D02*
X144020000Y-133455000D01*
X145980000Y-133495000D02*
X146932000Y-133495000D01*
X143068000Y-133495000D02*
X144020000Y-133495000D01*
X145980000Y-133535000D02*
X146965000Y-133535000D01*
X143035000Y-133535000D02*
X144020000Y-133535000D01*
X145980000Y-133575000D02*
X146997000Y-133575000D01*
X143003000Y-133575000D02*
X144020000Y-133575000D01*
X145980000Y-133615000D02*
X147028000Y-133615000D01*
X142972000Y-133615000D02*
X144020000Y-133615000D01*
X145980000Y-133655000D02*
X147058000Y-133655000D01*
X142942000Y-133655000D02*
X144020000Y-133655000D01*
X145980000Y-133695000D02*
X147086000Y-133695000D01*
X142914000Y-133695000D02*
X144020000Y-133695000D01*
X145980000Y-133735000D02*
X147113000Y-133735000D01*
X142887000Y-133735000D02*
X144020000Y-133735000D01*
X145980000Y-133775000D02*
X147140000Y-133775000D01*
X142860000Y-133775000D02*
X144020000Y-133775000D01*
X145980000Y-133815000D02*
X147165000Y-133815000D01*
X142835000Y-133815000D02*
X144020000Y-133815000D01*
X145980000Y-133855000D02*
X147189000Y-133855000D01*
X142811000Y-133855000D02*
X144020000Y-133855000D01*
X145980000Y-133895000D02*
X147212000Y-133895000D01*
X142788000Y-133895000D02*
X144020000Y-133895000D01*
X145980000Y-133935000D02*
X147234000Y-133935000D01*
X142766000Y-133935000D02*
X144020000Y-133935000D01*
X145980000Y-133975000D02*
X147256000Y-133975000D01*
X142744000Y-133975000D02*
X144020000Y-133975000D01*
X145980000Y-134015000D02*
X147276000Y-134015000D01*
X142724000Y-134015000D02*
X144020000Y-134015000D01*
X145980000Y-134055000D02*
X147296000Y-134055000D01*
X142704000Y-134055000D02*
X144020000Y-134055000D01*
X145980000Y-134095000D02*
X147315000Y-134095000D01*
X142685000Y-134095000D02*
X144020000Y-134095000D01*
X145980000Y-134135000D02*
X147333000Y-134135000D01*
X142667000Y-134135000D02*
X144020000Y-134135000D01*
X145980000Y-134175000D02*
X147350000Y-134175000D01*
X142650000Y-134175000D02*
X144020000Y-134175000D01*
X145980000Y-134215000D02*
X147366000Y-134215000D01*
X142634000Y-134215000D02*
X144020000Y-134215000D01*
X145980000Y-134255000D02*
X147382000Y-134255000D01*
X142618000Y-134255000D02*
X144020000Y-134255000D01*
X145980000Y-134295000D02*
X147396000Y-134295000D01*
X142604000Y-134295000D02*
X144020000Y-134295000D01*
X145980000Y-134335000D02*
X147410000Y-134335000D01*
X142590000Y-134335000D02*
X144020000Y-134335000D01*
X145980000Y-134375000D02*
X147424000Y-134375000D01*
X142576000Y-134375000D02*
X144020000Y-134375000D01*
X145980000Y-134415000D02*
X147436000Y-134415000D01*
X142564000Y-134415000D02*
X144020000Y-134415000D01*
X145980000Y-134455000D02*
X147448000Y-134455000D01*
X142552000Y-134455000D02*
X144020000Y-134455000D01*
X145980000Y-134496000D02*
X147460000Y-134496000D01*
X142540000Y-134496000D02*
X144020000Y-134496000D01*
X145980000Y-134536000D02*
X147470000Y-134536000D01*
X142530000Y-134536000D02*
X144020000Y-134536000D01*
X145980000Y-134576000D02*
X147480000Y-134576000D01*
X142520000Y-134576000D02*
X144020000Y-134576000D01*
X145980000Y-134616000D02*
X147489000Y-134616000D01*
X142511000Y-134616000D02*
X144020000Y-134616000D01*
X145980000Y-134656000D02*
X147498000Y-134656000D01*
X142502000Y-134656000D02*
X144020000Y-134656000D01*
X145980000Y-134696000D02*
X147506000Y-134696000D01*
X142494000Y-134696000D02*
X144020000Y-134696000D01*
X145980000Y-134736000D02*
X147513000Y-134736000D01*
X142487000Y-134736000D02*
X144020000Y-134736000D01*
X145980000Y-134776000D02*
X147519000Y-134776000D01*
X142481000Y-134776000D02*
X144020000Y-134776000D01*
X145980000Y-134816000D02*
X147525000Y-134816000D01*
X142475000Y-134816000D02*
X144020000Y-134816000D01*
X145980000Y-134856000D02*
X147531000Y-134856000D01*
X142469000Y-134856000D02*
X144020000Y-134856000D01*
X145980000Y-134896000D02*
X147535000Y-134896000D01*
X142465000Y-134896000D02*
X144020000Y-134896000D01*
X145980000Y-134936000D02*
X147539000Y-134936000D01*
X142461000Y-134936000D02*
X144020000Y-134936000D01*
X145980000Y-134976000D02*
X147543000Y-134976000D01*
X142457000Y-134976000D02*
X144020000Y-134976000D01*
X145980000Y-135016000D02*
X147546000Y-135016000D01*
X142454000Y-135016000D02*
X144020000Y-135016000D01*
X145980000Y-135056000D02*
X147548000Y-135056000D01*
X142452000Y-135056000D02*
X144020000Y-135056000D01*
X145980000Y-135096000D02*
X147549000Y-135096000D01*
X142451000Y-135096000D02*
X144020000Y-135096000D01*
X145980000Y-135136000D02*
X147550000Y-135136000D01*
X142450000Y-135136000D02*
X144020000Y-135136000D01*
X142450000Y-135176000D02*
X147550000Y-135176000D01*
X146179723Y-132870278D02*
G75*
G03X143820000Y-132870420I-1179723J-2305722D01*
G01*
X146179723Y-132870278D02*
G75*
G02X146180000Y-137481580I-1179723J-2305722D01*
G01*
X143820277Y-132870278D02*
G75*
G03X143820000Y-137481580I1179723J-2305722D01*
G01*
G04 #@! TO.C,C2*
X105780000Y-124120000D02*
X105780000Y-126120000D01*
X108740000Y-126120000D02*
X108740000Y-124120000D01*
G04 #@! TO.C,C3*
X110470000Y-125470000D02*
X110470000Y-124770000D01*
X111670000Y-124770000D02*
X111670000Y-125470000D01*
G04 #@! TO.C,C4*
X110840000Y-110600000D02*
X110140000Y-110600000D01*
X110140000Y-109400000D02*
X110840000Y-109400000D01*
G04 #@! TO.C,C5*
X122600000Y-133650000D02*
X122600000Y-132350000D01*
X123200000Y-133000000D02*
X122000000Y-133000000D01*
X117189000Y-133354000D02*
X117189000Y-132646000D01*
X117229000Y-133559000D02*
X117229000Y-132441000D01*
X117269000Y-133707000D02*
X117269000Y-132293000D01*
X117309000Y-133829000D02*
X117309000Y-132171000D01*
X117349000Y-133934000D02*
X117349000Y-132066000D01*
X117389000Y-134028000D02*
X117389000Y-131972000D01*
X117429000Y-134112000D02*
X117429000Y-131888000D01*
X117469000Y-134189000D02*
X117469000Y-131811000D01*
X117509000Y-134261000D02*
X117509000Y-131739000D01*
X117549000Y-132020000D02*
X117549000Y-131673000D01*
X117549000Y-134327000D02*
X117549000Y-133980000D01*
X117589000Y-132020000D02*
X117589000Y-131610000D01*
X117589000Y-134390000D02*
X117589000Y-133980000D01*
X117629000Y-132020000D02*
X117629000Y-131552000D01*
X117629000Y-134448000D02*
X117629000Y-133980000D01*
X117669000Y-132020000D02*
X117669000Y-131496000D01*
X117669000Y-134504000D02*
X117669000Y-133980000D01*
X117709000Y-132020000D02*
X117709000Y-131444000D01*
X117709000Y-134556000D02*
X117709000Y-133980000D01*
X117749000Y-132020000D02*
X117749000Y-131394000D01*
X117749000Y-134606000D02*
X117749000Y-133980000D01*
X117789000Y-132020000D02*
X117789000Y-131346000D01*
X117789000Y-134654000D02*
X117789000Y-133980000D01*
X117829000Y-132020000D02*
X117829000Y-131301000D01*
X117829000Y-134699000D02*
X117829000Y-133980000D01*
X117869000Y-132020000D02*
X117869000Y-131258000D01*
X117869000Y-134742000D02*
X117869000Y-133980000D01*
X117909000Y-132020000D02*
X117909000Y-131217000D01*
X117909000Y-134783000D02*
X117909000Y-133980000D01*
X117949000Y-132020000D02*
X117949000Y-131177000D01*
X117949000Y-134823000D02*
X117949000Y-133980000D01*
X117989000Y-132020000D02*
X117989000Y-131139000D01*
X117989000Y-134861000D02*
X117989000Y-133980000D01*
X118029000Y-132020000D02*
X118029000Y-131103000D01*
X118029000Y-134897000D02*
X118029000Y-133980000D01*
X118069000Y-132020000D02*
X118069000Y-131068000D01*
X118069000Y-134932000D02*
X118069000Y-133980000D01*
X118109000Y-132020000D02*
X118109000Y-131035000D01*
X118109000Y-134965000D02*
X118109000Y-133980000D01*
X118149000Y-132020000D02*
X118149000Y-131003000D01*
X118149000Y-134997000D02*
X118149000Y-133980000D01*
X118189000Y-132020000D02*
X118189000Y-130972000D01*
X118189000Y-135028000D02*
X118189000Y-133980000D01*
X118229000Y-132020000D02*
X118229000Y-130942000D01*
X118229000Y-135058000D02*
X118229000Y-133980000D01*
X118269000Y-132020000D02*
X118269000Y-130914000D01*
X118269000Y-135086000D02*
X118269000Y-133980000D01*
X118309000Y-132020000D02*
X118309000Y-130887000D01*
X118309000Y-135113000D02*
X118309000Y-133980000D01*
X118349000Y-132020000D02*
X118349000Y-130860000D01*
X118349000Y-135140000D02*
X118349000Y-133980000D01*
X118389000Y-132020000D02*
X118389000Y-130835000D01*
X118389000Y-135165000D02*
X118389000Y-133980000D01*
X118429000Y-132020000D02*
X118429000Y-130811000D01*
X118429000Y-135189000D02*
X118429000Y-133980000D01*
X118469000Y-132020000D02*
X118469000Y-130788000D01*
X118469000Y-135212000D02*
X118469000Y-133980000D01*
X118509000Y-132020000D02*
X118509000Y-130766000D01*
X118509000Y-135234000D02*
X118509000Y-133980000D01*
X118549000Y-132020000D02*
X118549000Y-130744000D01*
X118549000Y-135256000D02*
X118549000Y-133980000D01*
X118589000Y-132020000D02*
X118589000Y-130724000D01*
X118589000Y-135276000D02*
X118589000Y-133980000D01*
X118629000Y-132020000D02*
X118629000Y-130704000D01*
X118629000Y-135296000D02*
X118629000Y-133980000D01*
X118669000Y-132020000D02*
X118669000Y-130685000D01*
X118669000Y-135315000D02*
X118669000Y-133980000D01*
X118709000Y-132020000D02*
X118709000Y-130667000D01*
X118709000Y-135333000D02*
X118709000Y-133980000D01*
X118749000Y-132020000D02*
X118749000Y-130650000D01*
X118749000Y-135350000D02*
X118749000Y-133980000D01*
X118789000Y-132020000D02*
X118789000Y-130634000D01*
X118789000Y-135366000D02*
X118789000Y-133980000D01*
X118829000Y-132020000D02*
X118829000Y-130618000D01*
X118829000Y-135382000D02*
X118829000Y-133980000D01*
X118869000Y-132020000D02*
X118869000Y-130604000D01*
X118869000Y-135396000D02*
X118869000Y-133980000D01*
X118909000Y-132020000D02*
X118909000Y-130590000D01*
X118909000Y-135410000D02*
X118909000Y-133980000D01*
X118949000Y-132020000D02*
X118949000Y-130576000D01*
X118949000Y-135424000D02*
X118949000Y-133980000D01*
X118989000Y-132020000D02*
X118989000Y-130564000D01*
X118989000Y-135436000D02*
X118989000Y-133980000D01*
X119029000Y-132020000D02*
X119029000Y-130552000D01*
X119029000Y-135448000D02*
X119029000Y-133980000D01*
X119070000Y-132020000D02*
X119070000Y-130540000D01*
X119070000Y-135460000D02*
X119070000Y-133980000D01*
X119110000Y-132020000D02*
X119110000Y-130530000D01*
X119110000Y-135470000D02*
X119110000Y-133980000D01*
X119150000Y-132020000D02*
X119150000Y-130520000D01*
X119150000Y-135480000D02*
X119150000Y-133980000D01*
X119190000Y-132020000D02*
X119190000Y-130511000D01*
X119190000Y-135489000D02*
X119190000Y-133980000D01*
X119230000Y-132020000D02*
X119230000Y-130502000D01*
X119230000Y-135498000D02*
X119230000Y-133980000D01*
X119270000Y-132020000D02*
X119270000Y-130494000D01*
X119270000Y-135506000D02*
X119270000Y-133980000D01*
X119310000Y-132020000D02*
X119310000Y-130487000D01*
X119310000Y-135513000D02*
X119310000Y-133980000D01*
X119350000Y-132020000D02*
X119350000Y-130481000D01*
X119350000Y-135519000D02*
X119350000Y-133980000D01*
X119390000Y-132020000D02*
X119390000Y-130475000D01*
X119390000Y-135525000D02*
X119390000Y-133980000D01*
X119430000Y-132020000D02*
X119430000Y-130469000D01*
X119430000Y-135531000D02*
X119430000Y-133980000D01*
X119470000Y-132020000D02*
X119470000Y-130465000D01*
X119470000Y-135535000D02*
X119470000Y-133980000D01*
X119510000Y-135539000D02*
X119510000Y-130461000D01*
X119550000Y-135543000D02*
X119550000Y-130457000D01*
X119590000Y-135546000D02*
X119590000Y-130454000D01*
X119630000Y-135548000D02*
X119630000Y-130452000D01*
X119670000Y-135549000D02*
X119670000Y-130451000D01*
X119710000Y-135550000D02*
X119710000Y-130450000D01*
X119750000Y-135550000D02*
X119750000Y-130450000D01*
X117444278Y-131820277D02*
G75*
G03X117444420Y-134180000I2305722J-1179723D01*
G01*
X117444278Y-131820277D02*
G75*
G02X122055580Y-131820000I2305722J-1179723D01*
G01*
X117444278Y-134179723D02*
G75*
G03X122055580Y-134180000I2305722J1179723D01*
G01*
G04 #@! TO.C,C6*
X110444278Y-134179723D02*
G75*
G03X115055580Y-134180000I2305722J1179723D01*
G01*
X110444278Y-131820277D02*
G75*
G02X115055580Y-131820000I2305722J-1179723D01*
G01*
X110444278Y-131820277D02*
G75*
G03X110444420Y-134180000I2305722J-1179723D01*
G01*
X112750000Y-135550000D02*
X112750000Y-130450000D01*
X112710000Y-135550000D02*
X112710000Y-130450000D01*
X112670000Y-135549000D02*
X112670000Y-130451000D01*
X112630000Y-135548000D02*
X112630000Y-130452000D01*
X112590000Y-135546000D02*
X112590000Y-130454000D01*
X112550000Y-135543000D02*
X112550000Y-130457000D01*
X112510000Y-135539000D02*
X112510000Y-130461000D01*
X112470000Y-135535000D02*
X112470000Y-133980000D01*
X112470000Y-132020000D02*
X112470000Y-130465000D01*
X112430000Y-135531000D02*
X112430000Y-133980000D01*
X112430000Y-132020000D02*
X112430000Y-130469000D01*
X112390000Y-135525000D02*
X112390000Y-133980000D01*
X112390000Y-132020000D02*
X112390000Y-130475000D01*
X112350000Y-135519000D02*
X112350000Y-133980000D01*
X112350000Y-132020000D02*
X112350000Y-130481000D01*
X112310000Y-135513000D02*
X112310000Y-133980000D01*
X112310000Y-132020000D02*
X112310000Y-130487000D01*
X112270000Y-135506000D02*
X112270000Y-133980000D01*
X112270000Y-132020000D02*
X112270000Y-130494000D01*
X112230000Y-135498000D02*
X112230000Y-133980000D01*
X112230000Y-132020000D02*
X112230000Y-130502000D01*
X112190000Y-135489000D02*
X112190000Y-133980000D01*
X112190000Y-132020000D02*
X112190000Y-130511000D01*
X112150000Y-135480000D02*
X112150000Y-133980000D01*
X112150000Y-132020000D02*
X112150000Y-130520000D01*
X112110000Y-135470000D02*
X112110000Y-133980000D01*
X112110000Y-132020000D02*
X112110000Y-130530000D01*
X112070000Y-135460000D02*
X112070000Y-133980000D01*
X112070000Y-132020000D02*
X112070000Y-130540000D01*
X112029000Y-135448000D02*
X112029000Y-133980000D01*
X112029000Y-132020000D02*
X112029000Y-130552000D01*
X111989000Y-135436000D02*
X111989000Y-133980000D01*
X111989000Y-132020000D02*
X111989000Y-130564000D01*
X111949000Y-135424000D02*
X111949000Y-133980000D01*
X111949000Y-132020000D02*
X111949000Y-130576000D01*
X111909000Y-135410000D02*
X111909000Y-133980000D01*
X111909000Y-132020000D02*
X111909000Y-130590000D01*
X111869000Y-135396000D02*
X111869000Y-133980000D01*
X111869000Y-132020000D02*
X111869000Y-130604000D01*
X111829000Y-135382000D02*
X111829000Y-133980000D01*
X111829000Y-132020000D02*
X111829000Y-130618000D01*
X111789000Y-135366000D02*
X111789000Y-133980000D01*
X111789000Y-132020000D02*
X111789000Y-130634000D01*
X111749000Y-135350000D02*
X111749000Y-133980000D01*
X111749000Y-132020000D02*
X111749000Y-130650000D01*
X111709000Y-135333000D02*
X111709000Y-133980000D01*
X111709000Y-132020000D02*
X111709000Y-130667000D01*
X111669000Y-135315000D02*
X111669000Y-133980000D01*
X111669000Y-132020000D02*
X111669000Y-130685000D01*
X111629000Y-135296000D02*
X111629000Y-133980000D01*
X111629000Y-132020000D02*
X111629000Y-130704000D01*
X111589000Y-135276000D02*
X111589000Y-133980000D01*
X111589000Y-132020000D02*
X111589000Y-130724000D01*
X111549000Y-135256000D02*
X111549000Y-133980000D01*
X111549000Y-132020000D02*
X111549000Y-130744000D01*
X111509000Y-135234000D02*
X111509000Y-133980000D01*
X111509000Y-132020000D02*
X111509000Y-130766000D01*
X111469000Y-135212000D02*
X111469000Y-133980000D01*
X111469000Y-132020000D02*
X111469000Y-130788000D01*
X111429000Y-135189000D02*
X111429000Y-133980000D01*
X111429000Y-132020000D02*
X111429000Y-130811000D01*
X111389000Y-135165000D02*
X111389000Y-133980000D01*
X111389000Y-132020000D02*
X111389000Y-130835000D01*
X111349000Y-135140000D02*
X111349000Y-133980000D01*
X111349000Y-132020000D02*
X111349000Y-130860000D01*
X111309000Y-135113000D02*
X111309000Y-133980000D01*
X111309000Y-132020000D02*
X111309000Y-130887000D01*
X111269000Y-135086000D02*
X111269000Y-133980000D01*
X111269000Y-132020000D02*
X111269000Y-130914000D01*
X111229000Y-135058000D02*
X111229000Y-133980000D01*
X111229000Y-132020000D02*
X111229000Y-130942000D01*
X111189000Y-135028000D02*
X111189000Y-133980000D01*
X111189000Y-132020000D02*
X111189000Y-130972000D01*
X111149000Y-134997000D02*
X111149000Y-133980000D01*
X111149000Y-132020000D02*
X111149000Y-131003000D01*
X111109000Y-134965000D02*
X111109000Y-133980000D01*
X111109000Y-132020000D02*
X111109000Y-131035000D01*
X111069000Y-134932000D02*
X111069000Y-133980000D01*
X111069000Y-132020000D02*
X111069000Y-131068000D01*
X111029000Y-134897000D02*
X111029000Y-133980000D01*
X111029000Y-132020000D02*
X111029000Y-131103000D01*
X110989000Y-134861000D02*
X110989000Y-133980000D01*
X110989000Y-132020000D02*
X110989000Y-131139000D01*
X110949000Y-134823000D02*
X110949000Y-133980000D01*
X110949000Y-132020000D02*
X110949000Y-131177000D01*
X110909000Y-134783000D02*
X110909000Y-133980000D01*
X110909000Y-132020000D02*
X110909000Y-131217000D01*
X110869000Y-134742000D02*
X110869000Y-133980000D01*
X110869000Y-132020000D02*
X110869000Y-131258000D01*
X110829000Y-134699000D02*
X110829000Y-133980000D01*
X110829000Y-132020000D02*
X110829000Y-131301000D01*
X110789000Y-134654000D02*
X110789000Y-133980000D01*
X110789000Y-132020000D02*
X110789000Y-131346000D01*
X110749000Y-134606000D02*
X110749000Y-133980000D01*
X110749000Y-132020000D02*
X110749000Y-131394000D01*
X110709000Y-134556000D02*
X110709000Y-133980000D01*
X110709000Y-132020000D02*
X110709000Y-131444000D01*
X110669000Y-134504000D02*
X110669000Y-133980000D01*
X110669000Y-132020000D02*
X110669000Y-131496000D01*
X110629000Y-134448000D02*
X110629000Y-133980000D01*
X110629000Y-132020000D02*
X110629000Y-131552000D01*
X110589000Y-134390000D02*
X110589000Y-133980000D01*
X110589000Y-132020000D02*
X110589000Y-131610000D01*
X110549000Y-134327000D02*
X110549000Y-133980000D01*
X110549000Y-132020000D02*
X110549000Y-131673000D01*
X110509000Y-134261000D02*
X110509000Y-131739000D01*
X110469000Y-134189000D02*
X110469000Y-131811000D01*
X110429000Y-134112000D02*
X110429000Y-131888000D01*
X110389000Y-134028000D02*
X110389000Y-131972000D01*
X110349000Y-133934000D02*
X110349000Y-132066000D01*
X110309000Y-133829000D02*
X110309000Y-132171000D01*
X110269000Y-133707000D02*
X110269000Y-132293000D01*
X110229000Y-133559000D02*
X110229000Y-132441000D01*
X110189000Y-133354000D02*
X110189000Y-132646000D01*
X116200000Y-133000000D02*
X115000000Y-133000000D01*
X115600000Y-133650000D02*
X115600000Y-132350000D01*
G04 #@! TO.C,D1*
X142300000Y-142450000D02*
X139500000Y-142450000D01*
X142300000Y-141050000D02*
X139500000Y-141050000D01*
X142300000Y-142450000D02*
X142300000Y-141050000D01*
G04 #@! TO.C,D2*
X142300000Y-146450000D02*
X142300000Y-145050000D01*
X142300000Y-145050000D02*
X139500000Y-145050000D01*
X142300000Y-146450000D02*
X139500000Y-146450000D01*
G04 #@! TO.C,D3*
X156597000Y-117652000D02*
X153797000Y-117652000D01*
X156597000Y-116252000D02*
X153797000Y-116252000D01*
X156597000Y-117652000D02*
X156597000Y-116252000D01*
G04 #@! TO.C,J1*
X125650000Y-151030000D02*
X125650000Y-144620000D01*
X134350000Y-149800000D02*
X125650000Y-149800000D01*
X134350000Y-144620000D02*
X134350000Y-151030000D01*
X125650000Y-144620000D02*
X134350000Y-144620000D01*
X125650000Y-151030000D02*
X134350000Y-151030000D01*
G04 #@! TO.C,J2*
X132300000Y-135100000D02*
X132300000Y-134480000D01*
X130700000Y-135100000D02*
X132300000Y-135100000D01*
X130700000Y-134480000D02*
X130700000Y-135100000D01*
X129760000Y-135100000D02*
X129760000Y-134480000D01*
X128160000Y-135100000D02*
X129760000Y-135100000D01*
X128160000Y-134480000D02*
X128160000Y-135100000D01*
X131250000Y-140480000D02*
X131250000Y-139480000D01*
X129210000Y-140480000D02*
X129210000Y-139480000D01*
X131250000Y-139050000D02*
X131500000Y-139480000D01*
X129210000Y-139050000D02*
X131250000Y-139050000D01*
X128960000Y-139480000D02*
X129210000Y-139050000D01*
X131500000Y-139480000D02*
X131500000Y-140480000D01*
X128960000Y-139480000D02*
X131500000Y-139480000D01*
X128960000Y-140480000D02*
X128960000Y-139480000D01*
X132870000Y-134480000D02*
X127590000Y-134480000D01*
X132870000Y-140480000D02*
X132870000Y-134480000D01*
X127590000Y-140480000D02*
X132870000Y-140480000D01*
X127590000Y-134480000D02*
X127590000Y-140480000D01*
G04 #@! TO.C,J4*
X156705000Y-137992000D02*
X157325000Y-137992000D01*
X156705000Y-136392000D02*
X156705000Y-137992000D01*
X157325000Y-136392000D02*
X156705000Y-136392000D01*
X156705000Y-135452000D02*
X157325000Y-135452000D01*
X156705000Y-133852000D02*
X156705000Y-135452000D01*
X157325000Y-133852000D02*
X156705000Y-133852000D01*
X156705000Y-132912000D02*
X157325000Y-132912000D01*
X156705000Y-131312000D02*
X156705000Y-132912000D01*
X157325000Y-131312000D02*
X156705000Y-131312000D01*
X151325000Y-136942000D02*
X152325000Y-136942000D01*
X151325000Y-132362000D02*
X152325000Y-132362000D01*
X152755000Y-136942000D02*
X152325000Y-137192000D01*
X152755000Y-132362000D02*
X152755000Y-136942000D01*
X152325000Y-132112000D02*
X152755000Y-132362000D01*
X152325000Y-137192000D02*
X151325000Y-137192000D01*
X152325000Y-132112000D02*
X152325000Y-137192000D01*
X151325000Y-132112000D02*
X152325000Y-132112000D01*
X157325000Y-138562000D02*
X157325000Y-130742000D01*
X151325000Y-138562000D02*
X157325000Y-138562000D01*
X151325000Y-130742000D02*
X151325000Y-138562000D01*
X157325000Y-130742000D02*
X151325000Y-130742000D01*
G04 #@! TO.C,Q1*
X145000000Y-128644000D02*
X143540000Y-128644000D01*
X145000000Y-125484000D02*
X142840000Y-125484000D01*
X145000000Y-125484000D02*
X145000000Y-126414000D01*
X145000000Y-128644000D02*
X145000000Y-127714000D01*
G04 #@! TO.C,R1*
X144900000Y-140870000D02*
X146100000Y-140870000D01*
X146100000Y-142630000D02*
X144900000Y-142630000D01*
G04 #@! TO.C,R2*
X146100000Y-146630000D02*
X144900000Y-146630000D01*
X144900000Y-144870000D02*
X146100000Y-144870000D01*
G04 #@! TO.C,R3*
X155270000Y-121134000D02*
X154070000Y-121134000D01*
X154070000Y-119374000D02*
X155270000Y-119374000D01*
G04 #@! TO.C,R4*
X150000000Y-120722000D02*
X150000000Y-121722000D01*
X148640000Y-121722000D02*
X148640000Y-120722000D01*
G04 #@! TO.C,R5*
X144031000Y-120722000D02*
X144031000Y-121722000D01*
X142671000Y-121722000D02*
X142671000Y-120722000D01*
G04 #@! TO.C,R6*
X145592000Y-121722000D02*
X145592000Y-120722000D01*
X146952000Y-120722000D02*
X146952000Y-121722000D01*
G04 #@! TO.C,R7*
X149312000Y-127744000D02*
X148312000Y-127744000D01*
X148312000Y-126384000D02*
X149312000Y-126384000D01*
G04 #@! TO.C,R8*
X111170000Y-113150000D02*
X111170000Y-114150000D01*
X109810000Y-114150000D02*
X109810000Y-113150000D01*
G04 #@! TO.C,R9*
X112440000Y-104260000D02*
X112440000Y-105260000D01*
X111080000Y-105260000D02*
X111080000Y-104260000D01*
G04 #@! TO.C,R10*
X136755000Y-119029000D02*
X135755000Y-119029000D01*
X135755000Y-117669000D02*
X136755000Y-117669000D01*
G04 #@! TO.C,R11*
X136755000Y-122839000D02*
X135755000Y-122839000D01*
X135755000Y-121479000D02*
X136755000Y-121479000D01*
G04 #@! TO.C,R12*
X135755000Y-119574000D02*
X136755000Y-119574000D01*
X136755000Y-120934000D02*
X135755000Y-120934000D01*
G04 #@! TO.C,SW1*
X136600000Y-115650000D02*
X136600000Y-112930000D01*
X136600000Y-106070000D02*
X136600000Y-103350000D01*
X148900000Y-107930000D02*
X148900000Y-111070000D01*
X148900000Y-103350000D02*
X148900000Y-106070000D01*
X147229050Y-109460000D02*
G75*
G03X147229050Y-109460000I-4579050J0D01*
G01*
X148900000Y-112930000D02*
X148900000Y-115650000D01*
X136600000Y-103350000D02*
X148900000Y-103350000D01*
X136600000Y-111070000D02*
X136600000Y-107930000D01*
X148900000Y-115650000D02*
X136600000Y-115650000D01*
G04 #@! TO.C,U1*
X114380000Y-109190000D02*
X113770000Y-109190000D01*
X114380000Y-109190000D02*
X114380000Y-101570000D01*
X114380000Y-125810000D02*
X114380000Y-125190000D01*
X116500000Y-125810000D02*
X114380000Y-125810000D01*
X130620000Y-125810000D02*
X128500000Y-125810000D01*
X130620000Y-125190000D02*
X130620000Y-125810000D01*
X130620000Y-101570000D02*
X130620000Y-109190000D01*
X114380000Y-101570000D02*
X130620000Y-101570000D01*
G04 #@! TO.C,U2*
X120410000Y-138900000D02*
X120410000Y-144910000D01*
X113590000Y-141150000D02*
X113590000Y-144910000D01*
X120410000Y-144910000D02*
X119150000Y-144910000D01*
X113590000Y-144910000D02*
X114850000Y-144910000D01*
G04 #@! TO.C,FB1*
X127400000Y-130120000D02*
X128600000Y-130120000D01*
X128600000Y-131880000D02*
X127400000Y-131880000D01*
G04 #@! TO.C,J3*
X102420000Y-111920000D02*
X103750000Y-111920000D01*
X102420000Y-113250000D02*
X102420000Y-111920000D01*
X105020000Y-111920000D02*
X107620000Y-111920000D01*
X105020000Y-114520000D02*
X105020000Y-111920000D01*
X102420000Y-114520000D02*
X105020000Y-114520000D01*
X107620000Y-111920000D02*
X107620000Y-119660000D01*
X102420000Y-114520000D02*
X102420000Y-119660000D01*
X102420000Y-119660000D02*
X107620000Y-119660000D01*
G04 #@! TO.C,C1*
D12*
X141801142Y-135453666D02*
X141848761Y-135501285D01*
X141896380Y-135644142D01*
X141896380Y-135739380D01*
X141848761Y-135882238D01*
X141753523Y-135977476D01*
X141658285Y-136025095D01*
X141467809Y-136072714D01*
X141324952Y-136072714D01*
X141134476Y-136025095D01*
X141039238Y-135977476D01*
X140944000Y-135882238D01*
X140896380Y-135739380D01*
X140896380Y-135644142D01*
X140944000Y-135501285D01*
X140991619Y-135453666D01*
X141896380Y-134501285D02*
X141896380Y-135072714D01*
X141896380Y-134787000D02*
X140896380Y-134787000D01*
X141039238Y-134882238D01*
X141134476Y-134977476D01*
X141182095Y-135072714D01*
G04 #@! TO.C,C2*
X107093333Y-121667142D02*
X107045714Y-121714761D01*
X106902857Y-121762380D01*
X106807619Y-121762380D01*
X106664761Y-121714761D01*
X106569523Y-121619523D01*
X106521904Y-121524285D01*
X106474285Y-121333809D01*
X106474285Y-121190952D01*
X106521904Y-121000476D01*
X106569523Y-120905238D01*
X106664761Y-120810000D01*
X106807619Y-120762380D01*
X106902857Y-120762380D01*
X107045714Y-120810000D01*
X107093333Y-120857619D01*
X107474285Y-120857619D02*
X107521904Y-120810000D01*
X107617142Y-120762380D01*
X107855238Y-120762380D01*
X107950476Y-120810000D01*
X107998095Y-120857619D01*
X108045714Y-120952857D01*
X108045714Y-121048095D01*
X107998095Y-121190952D01*
X107426666Y-121762380D01*
X108045714Y-121762380D01*
G04 #@! TO.C,C3*
X110903333Y-122937142D02*
X110855714Y-122984761D01*
X110712857Y-123032380D01*
X110617619Y-123032380D01*
X110474761Y-122984761D01*
X110379523Y-122889523D01*
X110331904Y-122794285D01*
X110284285Y-122603809D01*
X110284285Y-122460952D01*
X110331904Y-122270476D01*
X110379523Y-122175238D01*
X110474761Y-122080000D01*
X110617619Y-122032380D01*
X110712857Y-122032380D01*
X110855714Y-122080000D01*
X110903333Y-122127619D01*
X111236666Y-122032380D02*
X111855714Y-122032380D01*
X111522380Y-122413333D01*
X111665238Y-122413333D01*
X111760476Y-122460952D01*
X111808095Y-122508571D01*
X111855714Y-122603809D01*
X111855714Y-122841904D01*
X111808095Y-122937142D01*
X111760476Y-122984761D01*
X111665238Y-123032380D01*
X111379523Y-123032380D01*
X111284285Y-122984761D01*
X111236666Y-122937142D01*
G04 #@! TO.C,C4*
X110323333Y-108357142D02*
X110275714Y-108404761D01*
X110132857Y-108452380D01*
X110037619Y-108452380D01*
X109894761Y-108404761D01*
X109799523Y-108309523D01*
X109751904Y-108214285D01*
X109704285Y-108023809D01*
X109704285Y-107880952D01*
X109751904Y-107690476D01*
X109799523Y-107595238D01*
X109894761Y-107500000D01*
X110037619Y-107452380D01*
X110132857Y-107452380D01*
X110275714Y-107500000D01*
X110323333Y-107547619D01*
X111180476Y-107785714D02*
X111180476Y-108452380D01*
X110942380Y-107404761D02*
X110704285Y-108119047D01*
X111323333Y-108119047D01*
G04 #@! TO.C,C5*
X119583333Y-136857142D02*
X119535714Y-136904761D01*
X119392857Y-136952380D01*
X119297619Y-136952380D01*
X119154761Y-136904761D01*
X119059523Y-136809523D01*
X119011904Y-136714285D01*
X118964285Y-136523809D01*
X118964285Y-136380952D01*
X119011904Y-136190476D01*
X119059523Y-136095238D01*
X119154761Y-136000000D01*
X119297619Y-135952380D01*
X119392857Y-135952380D01*
X119535714Y-136000000D01*
X119583333Y-136047619D01*
X120488095Y-135952380D02*
X120011904Y-135952380D01*
X119964285Y-136428571D01*
X120011904Y-136380952D01*
X120107142Y-136333333D01*
X120345238Y-136333333D01*
X120440476Y-136380952D01*
X120488095Y-136428571D01*
X120535714Y-136523809D01*
X120535714Y-136761904D01*
X120488095Y-136857142D01*
X120440476Y-136904761D01*
X120345238Y-136952380D01*
X120107142Y-136952380D01*
X120011904Y-136904761D01*
X119964285Y-136857142D01*
G04 #@! TO.C,C6*
X112833333Y-136857142D02*
X112785714Y-136904761D01*
X112642857Y-136952380D01*
X112547619Y-136952380D01*
X112404761Y-136904761D01*
X112309523Y-136809523D01*
X112261904Y-136714285D01*
X112214285Y-136523809D01*
X112214285Y-136380952D01*
X112261904Y-136190476D01*
X112309523Y-136095238D01*
X112404761Y-136000000D01*
X112547619Y-135952380D01*
X112642857Y-135952380D01*
X112785714Y-136000000D01*
X112833333Y-136047619D01*
X113690476Y-135952380D02*
X113500000Y-135952380D01*
X113404761Y-136000000D01*
X113357142Y-136047619D01*
X113261904Y-136190476D01*
X113214285Y-136380952D01*
X113214285Y-136761904D01*
X113261904Y-136857142D01*
X113309523Y-136904761D01*
X113404761Y-136952380D01*
X113595238Y-136952380D01*
X113690476Y-136904761D01*
X113738095Y-136857142D01*
X113785714Y-136761904D01*
X113785714Y-136523809D01*
X113738095Y-136428571D01*
X113690476Y-136380952D01*
X113595238Y-136333333D01*
X113404761Y-136333333D01*
X113309523Y-136380952D01*
X113261904Y-136428571D01*
X113214285Y-136523809D01*
G04 #@! TO.C,D1*
X139761904Y-143952380D02*
X139761904Y-142952380D01*
X140000000Y-142952380D01*
X140142857Y-143000000D01*
X140238095Y-143095238D01*
X140285714Y-143190476D01*
X140333333Y-143380952D01*
X140333333Y-143523809D01*
X140285714Y-143714285D01*
X140238095Y-143809523D01*
X140142857Y-143904761D01*
X140000000Y-143952380D01*
X139761904Y-143952380D01*
X141285714Y-143952380D02*
X140714285Y-143952380D01*
X141000000Y-143952380D02*
X141000000Y-142952380D01*
X140904761Y-143095238D01*
X140809523Y-143190476D01*
X140714285Y-143238095D01*
G04 #@! TO.C,D2*
X139761904Y-147952380D02*
X139761904Y-146952380D01*
X140000000Y-146952380D01*
X140142857Y-147000000D01*
X140238095Y-147095238D01*
X140285714Y-147190476D01*
X140333333Y-147380952D01*
X140333333Y-147523809D01*
X140285714Y-147714285D01*
X140238095Y-147809523D01*
X140142857Y-147904761D01*
X140000000Y-147952380D01*
X139761904Y-147952380D01*
X140714285Y-147047619D02*
X140761904Y-147000000D01*
X140857142Y-146952380D01*
X141095238Y-146952380D01*
X141190476Y-147000000D01*
X141238095Y-147047619D01*
X141285714Y-147142857D01*
X141285714Y-147238095D01*
X141238095Y-147380952D01*
X140666666Y-147952380D01*
X141285714Y-147952380D01*
G04 #@! TO.C,D3*
X157360904Y-117658380D02*
X157360904Y-116658380D01*
X157599000Y-116658380D01*
X157741857Y-116706000D01*
X157837095Y-116801238D01*
X157884714Y-116896476D01*
X157932333Y-117086952D01*
X157932333Y-117229809D01*
X157884714Y-117420285D01*
X157837095Y-117515523D01*
X157741857Y-117610761D01*
X157599000Y-117658380D01*
X157360904Y-117658380D01*
X158265666Y-116658380D02*
X158884714Y-116658380D01*
X158551380Y-117039333D01*
X158694238Y-117039333D01*
X158789476Y-117086952D01*
X158837095Y-117134571D01*
X158884714Y-117229809D01*
X158884714Y-117467904D01*
X158837095Y-117563142D01*
X158789476Y-117610761D01*
X158694238Y-117658380D01*
X158408523Y-117658380D01*
X158313285Y-117610761D01*
X158265666Y-117563142D01*
G04 #@! TO.C,J1*
X129666666Y-143212380D02*
X129666666Y-143926666D01*
X129619047Y-144069523D01*
X129523809Y-144164761D01*
X129380952Y-144212380D01*
X129285714Y-144212380D01*
X130666666Y-144212380D02*
X130095238Y-144212380D01*
X130380952Y-144212380D02*
X130380952Y-143212380D01*
X130285714Y-143355238D01*
X130190476Y-143450476D01*
X130095238Y-143498095D01*
G04 #@! TO.C,J2*
X129626666Y-132452380D02*
X129626666Y-133166666D01*
X129579047Y-133309523D01*
X129483809Y-133404761D01*
X129340952Y-133452380D01*
X129245714Y-133452380D01*
X130055238Y-132547619D02*
X130102857Y-132500000D01*
X130198095Y-132452380D01*
X130436190Y-132452380D01*
X130531428Y-132500000D01*
X130579047Y-132547619D01*
X130626666Y-132642857D01*
X130626666Y-132738095D01*
X130579047Y-132880952D01*
X130007619Y-133452380D01*
X130626666Y-133452380D01*
G04 #@! TO.C,J4*
X158257380Y-135445333D02*
X158971666Y-135445333D01*
X159114523Y-135492952D01*
X159209761Y-135588190D01*
X159257380Y-135731047D01*
X159257380Y-135826285D01*
X158590714Y-134540571D02*
X159257380Y-134540571D01*
X158209761Y-134778666D02*
X158924047Y-135016761D01*
X158924047Y-134397714D01*
G04 #@! TO.C,Q1*
X144144761Y-125111619D02*
X144049523Y-125064000D01*
X143954285Y-124968761D01*
X143811428Y-124825904D01*
X143716190Y-124778285D01*
X143620952Y-124778285D01*
X143668571Y-125016380D02*
X143573333Y-124968761D01*
X143478095Y-124873523D01*
X143430476Y-124683047D01*
X143430476Y-124349714D01*
X143478095Y-124159238D01*
X143573333Y-124064000D01*
X143668571Y-124016380D01*
X143859047Y-124016380D01*
X143954285Y-124064000D01*
X144049523Y-124159238D01*
X144097142Y-124349714D01*
X144097142Y-124683047D01*
X144049523Y-124873523D01*
X143954285Y-124968761D01*
X143859047Y-125016380D01*
X143668571Y-125016380D01*
X145049523Y-125016380D02*
X144478095Y-125016380D01*
X144763809Y-125016380D02*
X144763809Y-124016380D01*
X144668571Y-124159238D01*
X144573333Y-124254476D01*
X144478095Y-124302095D01*
G04 #@! TO.C,R1*
X145333333Y-143952380D02*
X145000000Y-143476190D01*
X144761904Y-143952380D02*
X144761904Y-142952380D01*
X145142857Y-142952380D01*
X145238095Y-143000000D01*
X145285714Y-143047619D01*
X145333333Y-143142857D01*
X145333333Y-143285714D01*
X145285714Y-143380952D01*
X145238095Y-143428571D01*
X145142857Y-143476190D01*
X144761904Y-143476190D01*
X146285714Y-143952380D02*
X145714285Y-143952380D01*
X146000000Y-143952380D02*
X146000000Y-142952380D01*
X145904761Y-143095238D01*
X145809523Y-143190476D01*
X145714285Y-143238095D01*
G04 #@! TO.C,R2*
X145333333Y-147952380D02*
X145000000Y-147476190D01*
X144761904Y-147952380D02*
X144761904Y-146952380D01*
X145142857Y-146952380D01*
X145238095Y-147000000D01*
X145285714Y-147047619D01*
X145333333Y-147142857D01*
X145333333Y-147285714D01*
X145285714Y-147380952D01*
X145238095Y-147428571D01*
X145142857Y-147476190D01*
X144761904Y-147476190D01*
X145714285Y-147047619D02*
X145761904Y-147000000D01*
X145857142Y-146952380D01*
X146095238Y-146952380D01*
X146190476Y-147000000D01*
X146238095Y-147047619D01*
X146285714Y-147142857D01*
X146285714Y-147238095D01*
X146238095Y-147380952D01*
X145666666Y-147952380D01*
X146285714Y-147952380D01*
G04 #@! TO.C,R3*
X157424333Y-120833380D02*
X157091000Y-120357190D01*
X156852904Y-120833380D02*
X156852904Y-119833380D01*
X157233857Y-119833380D01*
X157329095Y-119881000D01*
X157376714Y-119928619D01*
X157424333Y-120023857D01*
X157424333Y-120166714D01*
X157376714Y-120261952D01*
X157329095Y-120309571D01*
X157233857Y-120357190D01*
X156852904Y-120357190D01*
X157757666Y-119833380D02*
X158376714Y-119833380D01*
X158043380Y-120214333D01*
X158186238Y-120214333D01*
X158281476Y-120261952D01*
X158329095Y-120309571D01*
X158376714Y-120404809D01*
X158376714Y-120642904D01*
X158329095Y-120738142D01*
X158281476Y-120785761D01*
X158186238Y-120833380D01*
X157900523Y-120833380D01*
X157805285Y-120785761D01*
X157757666Y-120738142D01*
G04 #@! TO.C,R4*
X149153333Y-119515380D02*
X148820000Y-119039190D01*
X148581904Y-119515380D02*
X148581904Y-118515380D01*
X148962857Y-118515380D01*
X149058095Y-118563000D01*
X149105714Y-118610619D01*
X149153333Y-118705857D01*
X149153333Y-118848714D01*
X149105714Y-118943952D01*
X149058095Y-118991571D01*
X148962857Y-119039190D01*
X148581904Y-119039190D01*
X150010476Y-118848714D02*
X150010476Y-119515380D01*
X149772380Y-118467761D02*
X149534285Y-119182047D01*
X150153333Y-119182047D01*
G04 #@! TO.C,R5*
X143057333Y-119515380D02*
X142724000Y-119039190D01*
X142485904Y-119515380D02*
X142485904Y-118515380D01*
X142866857Y-118515380D01*
X142962095Y-118563000D01*
X143009714Y-118610619D01*
X143057333Y-118705857D01*
X143057333Y-118848714D01*
X143009714Y-118943952D01*
X142962095Y-118991571D01*
X142866857Y-119039190D01*
X142485904Y-119039190D01*
X143962095Y-118515380D02*
X143485904Y-118515380D01*
X143438285Y-118991571D01*
X143485904Y-118943952D01*
X143581142Y-118896333D01*
X143819238Y-118896333D01*
X143914476Y-118943952D01*
X143962095Y-118991571D01*
X144009714Y-119086809D01*
X144009714Y-119324904D01*
X143962095Y-119420142D01*
X143914476Y-119467761D01*
X143819238Y-119515380D01*
X143581142Y-119515380D01*
X143485904Y-119467761D01*
X143438285Y-119420142D01*
G04 #@! TO.C,R6*
X146105333Y-119515380D02*
X145772000Y-119039190D01*
X145533904Y-119515380D02*
X145533904Y-118515380D01*
X145914857Y-118515380D01*
X146010095Y-118563000D01*
X146057714Y-118610619D01*
X146105333Y-118705857D01*
X146105333Y-118848714D01*
X146057714Y-118943952D01*
X146010095Y-118991571D01*
X145914857Y-119039190D01*
X145533904Y-119039190D01*
X146962476Y-118515380D02*
X146772000Y-118515380D01*
X146676761Y-118563000D01*
X146629142Y-118610619D01*
X146533904Y-118753476D01*
X146486285Y-118943952D01*
X146486285Y-119324904D01*
X146533904Y-119420142D01*
X146581523Y-119467761D01*
X146676761Y-119515380D01*
X146867238Y-119515380D01*
X146962476Y-119467761D01*
X147010095Y-119420142D01*
X147057714Y-119324904D01*
X147057714Y-119086809D01*
X147010095Y-118991571D01*
X146962476Y-118943952D01*
X146867238Y-118896333D01*
X146676761Y-118896333D01*
X146581523Y-118943952D01*
X146533904Y-118991571D01*
X146486285Y-119086809D01*
G04 #@! TO.C,R7*
X148772333Y-125992380D02*
X148439000Y-125516190D01*
X148200904Y-125992380D02*
X148200904Y-124992380D01*
X148581857Y-124992380D01*
X148677095Y-125040000D01*
X148724714Y-125087619D01*
X148772333Y-125182857D01*
X148772333Y-125325714D01*
X148724714Y-125420952D01*
X148677095Y-125468571D01*
X148581857Y-125516190D01*
X148200904Y-125516190D01*
X149105666Y-124992380D02*
X149772333Y-124992380D01*
X149343761Y-125992380D01*
G04 #@! TO.C,R8*
X112392380Y-113816666D02*
X111916190Y-114150000D01*
X112392380Y-114388095D02*
X111392380Y-114388095D01*
X111392380Y-114007142D01*
X111440000Y-113911904D01*
X111487619Y-113864285D01*
X111582857Y-113816666D01*
X111725714Y-113816666D01*
X111820952Y-113864285D01*
X111868571Y-113911904D01*
X111916190Y-114007142D01*
X111916190Y-114388095D01*
X111820952Y-113245238D02*
X111773333Y-113340476D01*
X111725714Y-113388095D01*
X111630476Y-113435714D01*
X111582857Y-113435714D01*
X111487619Y-113388095D01*
X111440000Y-113340476D01*
X111392380Y-113245238D01*
X111392380Y-113054761D01*
X111440000Y-112959523D01*
X111487619Y-112911904D01*
X111582857Y-112864285D01*
X111630476Y-112864285D01*
X111725714Y-112911904D01*
X111773333Y-112959523D01*
X111820952Y-113054761D01*
X111820952Y-113245238D01*
X111868571Y-113340476D01*
X111916190Y-113388095D01*
X112011428Y-113435714D01*
X112201904Y-113435714D01*
X112297142Y-113388095D01*
X112344761Y-113340476D01*
X112392380Y-113245238D01*
X112392380Y-113054761D01*
X112344761Y-112959523D01*
X112297142Y-112911904D01*
X112201904Y-112864285D01*
X112011428Y-112864285D01*
X111916190Y-112911904D01*
X111868571Y-112959523D01*
X111820952Y-113054761D01*
G04 #@! TO.C,R9*
X111593333Y-102672380D02*
X111260000Y-102196190D01*
X111021904Y-102672380D02*
X111021904Y-101672380D01*
X111402857Y-101672380D01*
X111498095Y-101720000D01*
X111545714Y-101767619D01*
X111593333Y-101862857D01*
X111593333Y-102005714D01*
X111545714Y-102100952D01*
X111498095Y-102148571D01*
X111402857Y-102196190D01*
X111021904Y-102196190D01*
X112069523Y-102672380D02*
X112260000Y-102672380D01*
X112355238Y-102624761D01*
X112402857Y-102577142D01*
X112498095Y-102434285D01*
X112545714Y-102243809D01*
X112545714Y-101862857D01*
X112498095Y-101767619D01*
X112450476Y-101720000D01*
X112355238Y-101672380D01*
X112164761Y-101672380D01*
X112069523Y-101720000D01*
X112021904Y-101767619D01*
X111974285Y-101862857D01*
X111974285Y-102100952D01*
X112021904Y-102196190D01*
X112069523Y-102243809D01*
X112164761Y-102291428D01*
X112355238Y-102291428D01*
X112450476Y-102243809D01*
X112498095Y-102196190D01*
X112545714Y-102100952D01*
G04 #@! TO.C,R10*
X138787142Y-118801380D02*
X138453809Y-118325190D01*
X138215714Y-118801380D02*
X138215714Y-117801380D01*
X138596666Y-117801380D01*
X138691904Y-117849000D01*
X138739523Y-117896619D01*
X138787142Y-117991857D01*
X138787142Y-118134714D01*
X138739523Y-118229952D01*
X138691904Y-118277571D01*
X138596666Y-118325190D01*
X138215714Y-118325190D01*
X139739523Y-118801380D02*
X139168095Y-118801380D01*
X139453809Y-118801380D02*
X139453809Y-117801380D01*
X139358571Y-117944238D01*
X139263333Y-118039476D01*
X139168095Y-118087095D01*
X140358571Y-117801380D02*
X140453809Y-117801380D01*
X140549047Y-117849000D01*
X140596666Y-117896619D01*
X140644285Y-117991857D01*
X140691904Y-118182333D01*
X140691904Y-118420428D01*
X140644285Y-118610904D01*
X140596666Y-118706142D01*
X140549047Y-118753761D01*
X140453809Y-118801380D01*
X140358571Y-118801380D01*
X140263333Y-118753761D01*
X140215714Y-118706142D01*
X140168095Y-118610904D01*
X140120476Y-118420428D01*
X140120476Y-118182333D01*
X140168095Y-117991857D01*
X140215714Y-117896619D01*
X140263333Y-117849000D01*
X140358571Y-117801380D01*
G04 #@! TO.C,R11*
X138787142Y-122611380D02*
X138453809Y-122135190D01*
X138215714Y-122611380D02*
X138215714Y-121611380D01*
X138596666Y-121611380D01*
X138691904Y-121659000D01*
X138739523Y-121706619D01*
X138787142Y-121801857D01*
X138787142Y-121944714D01*
X138739523Y-122039952D01*
X138691904Y-122087571D01*
X138596666Y-122135190D01*
X138215714Y-122135190D01*
X139739523Y-122611380D02*
X139168095Y-122611380D01*
X139453809Y-122611380D02*
X139453809Y-121611380D01*
X139358571Y-121754238D01*
X139263333Y-121849476D01*
X139168095Y-121897095D01*
X140691904Y-122611380D02*
X140120476Y-122611380D01*
X140406190Y-122611380D02*
X140406190Y-121611380D01*
X140310952Y-121754238D01*
X140215714Y-121849476D01*
X140120476Y-121897095D01*
G04 #@! TO.C,R12*
X138787142Y-120706380D02*
X138453809Y-120230190D01*
X138215714Y-120706380D02*
X138215714Y-119706380D01*
X138596666Y-119706380D01*
X138691904Y-119754000D01*
X138739523Y-119801619D01*
X138787142Y-119896857D01*
X138787142Y-120039714D01*
X138739523Y-120134952D01*
X138691904Y-120182571D01*
X138596666Y-120230190D01*
X138215714Y-120230190D01*
X139739523Y-120706380D02*
X139168095Y-120706380D01*
X139453809Y-120706380D02*
X139453809Y-119706380D01*
X139358571Y-119849238D01*
X139263333Y-119944476D01*
X139168095Y-119992095D01*
X140120476Y-119801619D02*
X140168095Y-119754000D01*
X140263333Y-119706380D01*
X140501428Y-119706380D01*
X140596666Y-119754000D01*
X140644285Y-119801619D01*
X140691904Y-119896857D01*
X140691904Y-119992095D01*
X140644285Y-120134952D01*
X140072857Y-120706380D01*
X140691904Y-120706380D01*
G04 #@! TO.C,SW1*
X142332666Y-102244761D02*
X142475523Y-102292380D01*
X142713619Y-102292380D01*
X142808857Y-102244761D01*
X142856476Y-102197142D01*
X142904095Y-102101904D01*
X142904095Y-102006666D01*
X142856476Y-101911428D01*
X142808857Y-101863809D01*
X142713619Y-101816190D01*
X142523142Y-101768571D01*
X142427904Y-101720952D01*
X142380285Y-101673333D01*
X142332666Y-101578095D01*
X142332666Y-101482857D01*
X142380285Y-101387619D01*
X142427904Y-101340000D01*
X142523142Y-101292380D01*
X142761238Y-101292380D01*
X142904095Y-101340000D01*
X143237428Y-101292380D02*
X143475523Y-102292380D01*
X143666000Y-101578095D01*
X143856476Y-102292380D01*
X144094571Y-101292380D01*
X144999333Y-102292380D02*
X144427904Y-102292380D01*
X144713619Y-102292380D02*
X144713619Y-101292380D01*
X144618380Y-101435238D01*
X144523142Y-101530476D01*
X144427904Y-101578095D01*
G04 #@! TO.C,U1*
X121738095Y-127642380D02*
X121738095Y-128451904D01*
X121785714Y-128547142D01*
X121833333Y-128594761D01*
X121928571Y-128642380D01*
X122119047Y-128642380D01*
X122214285Y-128594761D01*
X122261904Y-128547142D01*
X122309523Y-128451904D01*
X122309523Y-127642380D01*
X123309523Y-128642380D02*
X122738095Y-128642380D01*
X123023809Y-128642380D02*
X123023809Y-127642380D01*
X122928571Y-127785238D01*
X122833333Y-127880476D01*
X122738095Y-127928095D01*
G04 #@! TO.C,U2*
X111452380Y-143761904D02*
X112261904Y-143761904D01*
X112357142Y-143714285D01*
X112404761Y-143666666D01*
X112452380Y-143571428D01*
X112452380Y-143380952D01*
X112404761Y-143285714D01*
X112357142Y-143238095D01*
X112261904Y-143190476D01*
X111452380Y-143190476D01*
X111547619Y-142761904D02*
X111500000Y-142714285D01*
X111452380Y-142619047D01*
X111452380Y-142380952D01*
X111500000Y-142285714D01*
X111547619Y-142238095D01*
X111642857Y-142190476D01*
X111738095Y-142190476D01*
X111880952Y-142238095D01*
X112452380Y-142809523D01*
X112452380Y-142190476D01*
G04 #@! TO.C,FB1*
X127166666Y-128928571D02*
X126833333Y-128928571D01*
X126833333Y-129452380D02*
X126833333Y-128452380D01*
X127309523Y-128452380D01*
X128023809Y-128928571D02*
X128166666Y-128976190D01*
X128214285Y-129023809D01*
X128261904Y-129119047D01*
X128261904Y-129261904D01*
X128214285Y-129357142D01*
X128166666Y-129404761D01*
X128071428Y-129452380D01*
X127690476Y-129452380D01*
X127690476Y-128452380D01*
X128023809Y-128452380D01*
X128119047Y-128500000D01*
X128166666Y-128547619D01*
X128214285Y-128642857D01*
X128214285Y-128738095D01*
X128166666Y-128833333D01*
X128119047Y-128880952D01*
X128023809Y-128928571D01*
X127690476Y-128928571D01*
X129214285Y-129452380D02*
X128642857Y-129452380D01*
X128928571Y-129452380D02*
X128928571Y-128452380D01*
X128833333Y-128595238D01*
X128738095Y-128690476D01*
X128642857Y-128738095D01*
G04 #@! TO.C,J3*
X104686666Y-110372380D02*
X104686666Y-111086666D01*
X104639047Y-111229523D01*
X104543809Y-111324761D01*
X104400952Y-111372380D01*
X104305714Y-111372380D01*
X105067619Y-110372380D02*
X105686666Y-110372380D01*
X105353333Y-110753333D01*
X105496190Y-110753333D01*
X105591428Y-110800952D01*
X105639047Y-110848571D01*
X105686666Y-110943809D01*
X105686666Y-111181904D01*
X105639047Y-111277142D01*
X105591428Y-111324761D01*
X105496190Y-111372380D01*
X105210476Y-111372380D01*
X105115238Y-111324761D01*
X105067619Y-111277142D01*
G04 #@! TO.C,H1*
X104238095Y-109262380D02*
X104238095Y-108262380D01*
X104238095Y-108738571D02*
X104809523Y-108738571D01*
X104809523Y-109262380D02*
X104809523Y-108262380D01*
X105809523Y-109262380D02*
X105238095Y-109262380D01*
X105523809Y-109262380D02*
X105523809Y-108262380D01*
X105428571Y-108405238D01*
X105333333Y-108500476D01*
X105238095Y-108548095D01*
G04 #@! TO.C,H2*
X104238095Y-141952380D02*
X104238095Y-140952380D01*
X104238095Y-141428571D02*
X104809523Y-141428571D01*
X104809523Y-141952380D02*
X104809523Y-140952380D01*
X105238095Y-141047619D02*
X105285714Y-141000000D01*
X105380952Y-140952380D01*
X105619047Y-140952380D01*
X105714285Y-141000000D01*
X105761904Y-141047619D01*
X105809523Y-141142857D01*
X105809523Y-141238095D01*
X105761904Y-141380952D01*
X105190476Y-141952380D01*
X105809523Y-141952380D01*
G04 #@! TO.C,H3*
X154238095Y-109262380D02*
X154238095Y-108262380D01*
X154238095Y-108738571D02*
X154809523Y-108738571D01*
X154809523Y-109262380D02*
X154809523Y-108262380D01*
X155190476Y-108262380D02*
X155809523Y-108262380D01*
X155476190Y-108643333D01*
X155619047Y-108643333D01*
X155714285Y-108690952D01*
X155761904Y-108738571D01*
X155809523Y-108833809D01*
X155809523Y-109071904D01*
X155761904Y-109167142D01*
X155714285Y-109214761D01*
X155619047Y-109262380D01*
X155333333Y-109262380D01*
X155238095Y-109214761D01*
X155190476Y-109167142D01*
G04 #@! TO.C,H4*
X154238095Y-141952380D02*
X154238095Y-140952380D01*
X154238095Y-141428571D02*
X154809523Y-141428571D01*
X154809523Y-141952380D02*
X154809523Y-140952380D01*
X155714285Y-141285714D02*
X155714285Y-141952380D01*
X155476190Y-140904761D02*
X155238095Y-141619047D01*
X155857142Y-141619047D01*
G04 #@! TD*
M02*
