M48
;DRILL file {KiCad 5.0.1} date Tue 13 Nov 2018 21:20:29 GMT
;FORMAT={2:4/ absolute / inch / suppress leading zeros}
FMAT,2
INCH,TZ
T1C0.0157
T2C0.0197
T3C0.0217
T4C0.0315
T5C0.0320
T6C0.0394
T7C0.0472
T8C0.0984
%
G90
G05
M72
T1
X41339Y-48819
X41732Y-49213
X43307Y-40945
X44094Y-44094
X47638Y-45472
X48425Y-45472
X49213Y-55315
X49409Y-51575
X49409Y-52165
X49803Y-44094
X50394Y-56693
X50591Y-58071
X51181Y-51969
X51378Y-51378
X52559Y-47319
X54134Y-57283
X54528Y-46063
X54528Y-47638
X55709Y-50394
X55906Y-47441
X57087Y-47441
X57677Y-48819
X58858Y-50787
T4
X43898Y-52362
X44882Y-52362
X57087Y-52825
X57087Y-53613
X46654Y-52362
X47638Y-52362
T5
X53740Y-42126
X53740Y-44094
X58661Y-42126
X58661Y-44094
T6
X40846Y-44587
X40846Y-45587
X40846Y-46587
X41846Y-44587
X41846Y-45587
X41846Y-46587
T7
X50772Y-54134
X51772Y-54134
X60750Y-52013
X60750Y-53013
X60750Y-54013
T8
X41339Y-41339
X41339Y-57087
X61024Y-41339
X61024Y-57087
T2
X49803Y-58533G85X49803Y-58278
G05
X52559Y-58533G85X52559Y-58278
G05
T3
X50138Y-57343G85X50256Y-57343
G05
X52106Y-57343G85X52224Y-57343
G05
T0
M30
