G04 #@! TF.GenerationSoftware,KiCad,Pcbnew,5.0.1*
G04 #@! TF.CreationDate,2018-11-13T22:10:38+00:00*
G04 #@! TF.ProjectId,ESP8266-WS2812B,455350383236362D575332383132422E,rev?*
G04 #@! TF.SameCoordinates,Original*
G04 #@! TF.FileFunction,Legend,Bot*
G04 #@! TF.FilePolarity,Positive*
%FSLAX46Y46*%
G04 Gerber Fmt 4.6, Leading zero omitted, Abs format (unit mm)*
G04 Created by KiCad (PCBNEW 5.0.1) date Tue 13 Nov 2018 22:10:38 GMT*
%MOMM*%
%LPD*%
G01*
G04 APERTURE LIST*
%ADD10C,0.200000*%
%ADD11C,0.150000*%
G04 APERTURE END LIST*
D10*
X125509523Y-106952380D02*
X125842857Y-106476190D01*
X126080952Y-106952380D02*
X126080952Y-105952380D01*
X125700000Y-105952380D01*
X125604761Y-106000000D01*
X125557142Y-106047619D01*
X125509523Y-106142857D01*
X125509523Y-106285714D01*
X125557142Y-106380952D01*
X125604761Y-106428571D01*
X125700000Y-106476190D01*
X126080952Y-106476190D01*
X124700000Y-106904761D02*
X124795238Y-106952380D01*
X124985714Y-106952380D01*
X125080952Y-106904761D01*
X125128571Y-106809523D01*
X125128571Y-106428571D01*
X125080952Y-106333333D01*
X124985714Y-106285714D01*
X124795238Y-106285714D01*
X124700000Y-106333333D01*
X124652380Y-106428571D01*
X124652380Y-106523809D01*
X125128571Y-106619047D01*
X124319047Y-106285714D02*
X124080952Y-106952380D01*
X123842857Y-106285714D01*
X122747619Y-106666666D02*
X122271428Y-106666666D01*
X122842857Y-106952380D02*
X122509523Y-105952380D01*
X122176190Y-106952380D01*
X125647619Y-104757142D02*
X125695238Y-104804761D01*
X125838095Y-104852380D01*
X125933333Y-104852380D01*
X126076190Y-104804761D01*
X126171428Y-104709523D01*
X126219047Y-104614285D01*
X126266666Y-104423809D01*
X126266666Y-104280952D01*
X126219047Y-104090476D01*
X126171428Y-103995238D01*
X126076190Y-103900000D01*
X125933333Y-103852380D01*
X125838095Y-103852380D01*
X125695238Y-103900000D01*
X125647619Y-103947619D01*
X125076190Y-104852380D02*
X125171428Y-104804761D01*
X125219047Y-104757142D01*
X125266666Y-104661904D01*
X125266666Y-104376190D01*
X125219047Y-104280952D01*
X125171428Y-104233333D01*
X125076190Y-104185714D01*
X124933333Y-104185714D01*
X124838095Y-104233333D01*
X124790476Y-104280952D01*
X124742857Y-104376190D01*
X124742857Y-104661904D01*
X124790476Y-104757142D01*
X124838095Y-104804761D01*
X124933333Y-104852380D01*
X125076190Y-104852380D01*
X124314285Y-104185714D02*
X124314285Y-104852380D01*
X124314285Y-104280952D02*
X124266666Y-104233333D01*
X124171428Y-104185714D01*
X124028571Y-104185714D01*
X123933333Y-104233333D01*
X123885714Y-104328571D01*
X123885714Y-104852380D01*
X123409523Y-104185714D02*
X123409523Y-104852380D01*
X123409523Y-104280952D02*
X123361904Y-104233333D01*
X123266666Y-104185714D01*
X123123809Y-104185714D01*
X123028571Y-104233333D01*
X122980952Y-104328571D01*
X122980952Y-104852380D01*
X122361904Y-104852380D02*
X122457142Y-104804761D01*
X122504761Y-104757142D01*
X122552380Y-104661904D01*
X122552380Y-104376190D01*
X122504761Y-104280952D01*
X122457142Y-104233333D01*
X122361904Y-104185714D01*
X122219047Y-104185714D01*
X122123809Y-104233333D01*
X122076190Y-104280952D01*
X122028571Y-104376190D01*
X122028571Y-104661904D01*
X122076190Y-104757142D01*
X122123809Y-104804761D01*
X122219047Y-104852380D01*
X122361904Y-104852380D01*
X121600000Y-104852380D02*
X121600000Y-104185714D01*
X121600000Y-104376190D02*
X121552380Y-104280952D01*
X121504761Y-104233333D01*
X121409523Y-104185714D01*
X121314285Y-104185714D01*
X120219047Y-104852380D02*
X120219047Y-103852380D01*
X119980952Y-103852380D01*
X119838095Y-103900000D01*
X119742857Y-103995238D01*
X119695238Y-104090476D01*
X119647619Y-104280952D01*
X119647619Y-104423809D01*
X119695238Y-104614285D01*
X119742857Y-104709523D01*
X119838095Y-104804761D01*
X119980952Y-104852380D01*
X120219047Y-104852380D01*
X119219047Y-104852380D02*
X119219047Y-104185714D01*
X119219047Y-104376190D02*
X119171428Y-104280952D01*
X119123809Y-104233333D01*
X119028571Y-104185714D01*
X118933333Y-104185714D01*
X118600000Y-104852380D02*
X118600000Y-104185714D01*
X118600000Y-103852380D02*
X118647619Y-103900000D01*
X118600000Y-103947619D01*
X118552380Y-103900000D01*
X118600000Y-103852380D01*
X118600000Y-103947619D01*
X118171428Y-104804761D02*
X118076190Y-104852380D01*
X117885714Y-104852380D01*
X117790476Y-104804761D01*
X117742857Y-104709523D01*
X117742857Y-104661904D01*
X117790476Y-104566666D01*
X117885714Y-104519047D01*
X118028571Y-104519047D01*
X118123809Y-104471428D01*
X118171428Y-104376190D01*
X118171428Y-104328571D01*
X118123809Y-104233333D01*
X118028571Y-104185714D01*
X117885714Y-104185714D01*
X117790476Y-104233333D01*
X116885714Y-104804761D02*
X116980952Y-104852380D01*
X117171428Y-104852380D01*
X117266666Y-104804761D01*
X117314285Y-104757142D01*
X117361904Y-104661904D01*
X117361904Y-104376190D01*
X117314285Y-104280952D01*
X117266666Y-104233333D01*
X117171428Y-104185714D01*
X116980952Y-104185714D01*
X116885714Y-104233333D01*
X116314285Y-104852380D02*
X116409523Y-104804761D01*
X116457142Y-104757142D01*
X116504761Y-104661904D01*
X116504761Y-104376190D01*
X116457142Y-104280952D01*
X116409523Y-104233333D01*
X116314285Y-104185714D01*
X116171428Y-104185714D01*
X116076190Y-104233333D01*
X116028571Y-104280952D01*
X115980952Y-104376190D01*
X115980952Y-104661904D01*
X116028571Y-104757142D01*
X116076190Y-104804761D01*
X116171428Y-104852380D01*
X116314285Y-104852380D01*
X115409523Y-104852380D02*
X115504761Y-104804761D01*
X115552380Y-104709523D01*
X115552380Y-103852380D01*
X114885714Y-104852380D02*
X114980952Y-104804761D01*
X115028571Y-104709523D01*
X115028571Y-103852380D01*
D11*
X125833333Y-102428571D02*
X125500000Y-102428571D01*
X125357142Y-102952380D02*
X125833333Y-102952380D01*
X125833333Y-101952380D01*
X125357142Y-101952380D01*
X124976190Y-102904761D02*
X124833333Y-102952380D01*
X124595238Y-102952380D01*
X124500000Y-102904761D01*
X124452380Y-102857142D01*
X124404761Y-102761904D01*
X124404761Y-102666666D01*
X124452380Y-102571428D01*
X124500000Y-102523809D01*
X124595238Y-102476190D01*
X124785714Y-102428571D01*
X124880952Y-102380952D01*
X124928571Y-102333333D01*
X124976190Y-102238095D01*
X124976190Y-102142857D01*
X124928571Y-102047619D01*
X124880952Y-102000000D01*
X124785714Y-101952380D01*
X124547619Y-101952380D01*
X124404761Y-102000000D01*
X123976190Y-102952380D02*
X123976190Y-101952380D01*
X123595238Y-101952380D01*
X123500000Y-102000000D01*
X123452380Y-102047619D01*
X123404761Y-102142857D01*
X123404761Y-102285714D01*
X123452380Y-102380952D01*
X123500000Y-102428571D01*
X123595238Y-102476190D01*
X123976190Y-102476190D01*
X122833333Y-102380952D02*
X122928571Y-102333333D01*
X122976190Y-102285714D01*
X123023809Y-102190476D01*
X123023809Y-102142857D01*
X122976190Y-102047619D01*
X122928571Y-102000000D01*
X122833333Y-101952380D01*
X122642857Y-101952380D01*
X122547619Y-102000000D01*
X122500000Y-102047619D01*
X122452380Y-102142857D01*
X122452380Y-102190476D01*
X122500000Y-102285714D01*
X122547619Y-102333333D01*
X122642857Y-102380952D01*
X122833333Y-102380952D01*
X122928571Y-102428571D01*
X122976190Y-102476190D01*
X123023809Y-102571428D01*
X123023809Y-102761904D01*
X122976190Y-102857142D01*
X122928571Y-102904761D01*
X122833333Y-102952380D01*
X122642857Y-102952380D01*
X122547619Y-102904761D01*
X122500000Y-102857142D01*
X122452380Y-102761904D01*
X122452380Y-102571428D01*
X122500000Y-102476190D01*
X122547619Y-102428571D01*
X122642857Y-102380952D01*
X122071428Y-102047619D02*
X122023809Y-102000000D01*
X121928571Y-101952380D01*
X121690476Y-101952380D01*
X121595238Y-102000000D01*
X121547619Y-102047619D01*
X121500000Y-102142857D01*
X121500000Y-102238095D01*
X121547619Y-102380952D01*
X122119047Y-102952380D01*
X121500000Y-102952380D01*
X120642857Y-101952380D02*
X120833333Y-101952380D01*
X120928571Y-102000000D01*
X120976190Y-102047619D01*
X121071428Y-102190476D01*
X121119047Y-102380952D01*
X121119047Y-102761904D01*
X121071428Y-102857142D01*
X121023809Y-102904761D01*
X120928571Y-102952380D01*
X120738095Y-102952380D01*
X120642857Y-102904761D01*
X120595238Y-102857142D01*
X120547619Y-102761904D01*
X120547619Y-102523809D01*
X120595238Y-102428571D01*
X120642857Y-102380952D01*
X120738095Y-102333333D01*
X120928571Y-102333333D01*
X121023809Y-102380952D01*
X121071428Y-102428571D01*
X121119047Y-102523809D01*
X119690476Y-101952380D02*
X119880952Y-101952380D01*
X119976190Y-102000000D01*
X120023809Y-102047619D01*
X120119047Y-102190476D01*
X120166666Y-102380952D01*
X120166666Y-102761904D01*
X120119047Y-102857142D01*
X120071428Y-102904761D01*
X119976190Y-102952380D01*
X119785714Y-102952380D01*
X119690476Y-102904761D01*
X119642857Y-102857142D01*
X119595238Y-102761904D01*
X119595238Y-102523809D01*
X119642857Y-102428571D01*
X119690476Y-102380952D01*
X119785714Y-102333333D01*
X119976190Y-102333333D01*
X120071428Y-102380952D01*
X120119047Y-102428571D01*
X120166666Y-102523809D01*
X117928571Y-102952380D02*
X118404761Y-102952380D01*
X118404761Y-101952380D01*
X117595238Y-102428571D02*
X117261904Y-102428571D01*
X117119047Y-102952380D02*
X117595238Y-102952380D01*
X117595238Y-101952380D01*
X117119047Y-101952380D01*
X116690476Y-102952380D02*
X116690476Y-101952380D01*
X116452380Y-101952380D01*
X116309523Y-102000000D01*
X116214285Y-102095238D01*
X116166666Y-102190476D01*
X116119047Y-102380952D01*
X116119047Y-102523809D01*
X116166666Y-102714285D01*
X116214285Y-102809523D01*
X116309523Y-102904761D01*
X116452380Y-102952380D01*
X116690476Y-102952380D01*
D10*
X133900000Y-103400000D02*
X114400000Y-103400000D01*
X114400000Y-105400000D02*
X133900000Y-105400000D01*
X126600000Y-101400000D02*
X126600000Y-107500000D01*
X132623809Y-106852380D02*
X132957142Y-106376190D01*
X133195238Y-106852380D02*
X133195238Y-105852380D01*
X132814285Y-105852380D01*
X132719047Y-105900000D01*
X132671428Y-105947619D01*
X132623809Y-106042857D01*
X132623809Y-106185714D01*
X132671428Y-106280952D01*
X132719047Y-106328571D01*
X132814285Y-106376190D01*
X133195238Y-106376190D01*
X131814285Y-106804761D02*
X131909523Y-106852380D01*
X132100000Y-106852380D01*
X132195238Y-106804761D01*
X132242857Y-106709523D01*
X132242857Y-106328571D01*
X132195238Y-106233333D01*
X132100000Y-106185714D01*
X131909523Y-106185714D01*
X131814285Y-106233333D01*
X131766666Y-106328571D01*
X131766666Y-106423809D01*
X132242857Y-106519047D01*
X131433333Y-106185714D02*
X131195238Y-106852380D01*
X130957142Y-106185714D01*
X130576190Y-106852380D02*
X130576190Y-106185714D01*
X130576190Y-105852380D02*
X130623809Y-105900000D01*
X130576190Y-105947619D01*
X130528571Y-105900000D01*
X130576190Y-105852380D01*
X130576190Y-105947619D01*
X130147619Y-106804761D02*
X130052380Y-106852380D01*
X129861904Y-106852380D01*
X129766666Y-106804761D01*
X129719047Y-106709523D01*
X129719047Y-106661904D01*
X129766666Y-106566666D01*
X129861904Y-106519047D01*
X130004761Y-106519047D01*
X130100000Y-106471428D01*
X130147619Y-106376190D01*
X130147619Y-106328571D01*
X130100000Y-106233333D01*
X130004761Y-106185714D01*
X129861904Y-106185714D01*
X129766666Y-106233333D01*
X129290476Y-106852380D02*
X129290476Y-106185714D01*
X129290476Y-105852380D02*
X129338095Y-105900000D01*
X129290476Y-105947619D01*
X129242857Y-105900000D01*
X129290476Y-105852380D01*
X129290476Y-105947619D01*
X128671428Y-106852380D02*
X128766666Y-106804761D01*
X128814285Y-106757142D01*
X128861904Y-106661904D01*
X128861904Y-106376190D01*
X128814285Y-106280952D01*
X128766666Y-106233333D01*
X128671428Y-106185714D01*
X128528571Y-106185714D01*
X128433333Y-106233333D01*
X128385714Y-106280952D01*
X128338095Y-106376190D01*
X128338095Y-106661904D01*
X128385714Y-106757142D01*
X128433333Y-106804761D01*
X128528571Y-106852380D01*
X128671428Y-106852380D01*
X127909523Y-106185714D02*
X127909523Y-106852380D01*
X127909523Y-106280952D02*
X127861904Y-106233333D01*
X127766666Y-106185714D01*
X127623809Y-106185714D01*
X127528571Y-106233333D01*
X127480952Y-106328571D01*
X127480952Y-106852380D01*
X127004761Y-106757142D02*
X126957142Y-106804761D01*
X127004761Y-106852380D01*
X127052380Y-106804761D01*
X127004761Y-106757142D01*
X127004761Y-106852380D01*
X127004761Y-106233333D02*
X126957142Y-106280952D01*
X127004761Y-106328571D01*
X127052380Y-106280952D01*
X127004761Y-106233333D01*
X127004761Y-106328571D01*
X133000000Y-102852380D02*
X133000000Y-101852380D01*
X132619047Y-101852380D01*
X132523809Y-101900000D01*
X132476190Y-101947619D01*
X132428571Y-102042857D01*
X132428571Y-102185714D01*
X132476190Y-102280952D01*
X132523809Y-102328571D01*
X132619047Y-102376190D01*
X133000000Y-102376190D01*
X131428571Y-102757142D02*
X131476190Y-102804761D01*
X131619047Y-102852380D01*
X131714285Y-102852380D01*
X131857142Y-102804761D01*
X131952380Y-102709523D01*
X132000000Y-102614285D01*
X132047619Y-102423809D01*
X132047619Y-102280952D01*
X132000000Y-102090476D01*
X131952380Y-101995238D01*
X131857142Y-101900000D01*
X131714285Y-101852380D01*
X131619047Y-101852380D01*
X131476190Y-101900000D01*
X131428571Y-101947619D01*
X130666666Y-102328571D02*
X130523809Y-102376190D01*
X130476190Y-102423809D01*
X130428571Y-102519047D01*
X130428571Y-102661904D01*
X130476190Y-102757142D01*
X130523809Y-102804761D01*
X130619047Y-102852380D01*
X131000000Y-102852380D01*
X131000000Y-101852380D01*
X130666666Y-101852380D01*
X130571428Y-101900000D01*
X130523809Y-101947619D01*
X130476190Y-102042857D01*
X130476190Y-102138095D01*
X130523809Y-102233333D01*
X130571428Y-102280952D01*
X130666666Y-102328571D01*
X131000000Y-102328571D01*
X130000000Y-102757142D02*
X129952380Y-102804761D01*
X130000000Y-102852380D01*
X130047619Y-102804761D01*
X130000000Y-102757142D01*
X130000000Y-102852380D01*
X130000000Y-102233333D02*
X129952380Y-102280952D01*
X130000000Y-102328571D01*
X130047619Y-102280952D01*
X130000000Y-102233333D01*
X130000000Y-102328571D01*
X133128571Y-104566666D02*
X132652380Y-104566666D01*
X133223809Y-104852380D02*
X132890476Y-103852380D01*
X132557142Y-104852380D01*
X131795238Y-104185714D02*
X131795238Y-104852380D01*
X132223809Y-104185714D02*
X132223809Y-104709523D01*
X132176190Y-104804761D01*
X132080952Y-104852380D01*
X131938095Y-104852380D01*
X131842857Y-104804761D01*
X131795238Y-104757142D01*
X131461904Y-104185714D02*
X131080952Y-104185714D01*
X131319047Y-103852380D02*
X131319047Y-104709523D01*
X131271428Y-104804761D01*
X131176190Y-104852380D01*
X131080952Y-104852380D01*
X130747619Y-104852380D02*
X130747619Y-103852380D01*
X130319047Y-104852380D02*
X130319047Y-104328571D01*
X130366666Y-104233333D01*
X130461904Y-104185714D01*
X130604761Y-104185714D01*
X130700000Y-104233333D01*
X130747619Y-104280952D01*
X129700000Y-104852380D02*
X129795238Y-104804761D01*
X129842857Y-104757142D01*
X129890476Y-104661904D01*
X129890476Y-104376190D01*
X129842857Y-104280952D01*
X129795238Y-104233333D01*
X129700000Y-104185714D01*
X129557142Y-104185714D01*
X129461904Y-104233333D01*
X129414285Y-104280952D01*
X129366666Y-104376190D01*
X129366666Y-104661904D01*
X129414285Y-104757142D01*
X129461904Y-104804761D01*
X129557142Y-104852380D01*
X129700000Y-104852380D01*
X128938095Y-104852380D02*
X128938095Y-104185714D01*
X128938095Y-104376190D02*
X128890476Y-104280952D01*
X128842857Y-104233333D01*
X128747619Y-104185714D01*
X128652380Y-104185714D01*
X128319047Y-104757142D02*
X128271428Y-104804761D01*
X128319047Y-104852380D01*
X128366666Y-104804761D01*
X128319047Y-104757142D01*
X128319047Y-104852380D01*
X128319047Y-104233333D02*
X128271428Y-104280952D01*
X128319047Y-104328571D01*
X128366666Y-104280952D01*
X128319047Y-104233333D01*
X128319047Y-104328571D01*
X133900000Y-101400000D02*
X114400000Y-101400000D01*
X133900000Y-107500000D02*
X133900000Y-101400000D01*
X114400000Y-107500000D02*
X133900000Y-107500000D01*
X114400000Y-101400000D02*
X114400000Y-107500000D01*
M02*
