G04 #@! TF.GenerationSoftware,KiCad,Pcbnew,5.0.1*
G04 #@! TF.CreationDate,2018-11-13T21:20:22+00:00*
G04 #@! TF.ProjectId,ESP8266-WS2812B,455350383236362D575332383132422E,rev?*
G04 #@! TF.SameCoordinates,Original*
G04 #@! TF.FileFunction,Soldermask,Bot*
G04 #@! TF.FilePolarity,Negative*
%FSLAX46Y46*%
G04 Gerber Fmt 4.6, Leading zero omitted, Abs format (unit mm)*
G04 Created by KiCad (PCBNEW 5.0.1) date Tue 13 Nov 2018 21:20:22 GMT*
%MOMM*%
%LPD*%
G01*
G04 APERTURE LIST*
%ADD10C,0.100000*%
G04 APERTURE END LIST*
D10*
G36*
X133608014Y-147531973D02*
X133711878Y-147563479D01*
X133807600Y-147614644D01*
X133891501Y-147683499D01*
X133960356Y-147767400D01*
X134011521Y-147863121D01*
X134043027Y-147966985D01*
X134051000Y-148047933D01*
X134051000Y-148652067D01*
X134043027Y-148733015D01*
X134011521Y-148836879D01*
X133960356Y-148932600D01*
X133891501Y-149016501D01*
X133807600Y-149085356D01*
X133711879Y-149136521D01*
X133608015Y-149168027D01*
X133500000Y-149178666D01*
X133391986Y-149168027D01*
X133288122Y-149136521D01*
X133192401Y-149085356D01*
X133108500Y-149016501D01*
X133039645Y-148932600D01*
X132988480Y-148836879D01*
X132956973Y-148733015D01*
X132949000Y-148652067D01*
X132949000Y-148047934D01*
X132956973Y-147966986D01*
X132988479Y-147863122D01*
X133039644Y-147767400D01*
X133108499Y-147683499D01*
X133192400Y-147614644D01*
X133288121Y-147563479D01*
X133391985Y-147531973D01*
X133500000Y-147521334D01*
X133608014Y-147531973D01*
X133608014Y-147531973D01*
G37*
G36*
X126608014Y-147531973D02*
X126711878Y-147563479D01*
X126807600Y-147614644D01*
X126891501Y-147683499D01*
X126960356Y-147767400D01*
X127011521Y-147863121D01*
X127043027Y-147966985D01*
X127051000Y-148047933D01*
X127051000Y-148652067D01*
X127043027Y-148733015D01*
X127011521Y-148836879D01*
X126960356Y-148932600D01*
X126891501Y-149016501D01*
X126807600Y-149085356D01*
X126711879Y-149136521D01*
X126608015Y-149168027D01*
X126500000Y-149178666D01*
X126391986Y-149168027D01*
X126288122Y-149136521D01*
X126192401Y-149085356D01*
X126108500Y-149016501D01*
X126039645Y-148932600D01*
X125988480Y-148836879D01*
X125956973Y-148733015D01*
X125949000Y-148652067D01*
X125949000Y-148047934D01*
X125956973Y-147966986D01*
X125988479Y-147863122D01*
X126039644Y-147767400D01*
X126108499Y-147683499D01*
X126192400Y-147614644D01*
X126288121Y-147563479D01*
X126391985Y-147531973D01*
X126500000Y-147521334D01*
X126608014Y-147531973D01*
X126608014Y-147531973D01*
G37*
G36*
X155379485Y-143748996D02*
X155379487Y-143748997D01*
X155379488Y-143748997D01*
X155616255Y-143847069D01*
X155829342Y-143989449D01*
X156010551Y-144170658D01*
X156152931Y-144383745D01*
X156251004Y-144620515D01*
X156301000Y-144871861D01*
X156301000Y-145128139D01*
X156255605Y-145356356D01*
X156251003Y-145379488D01*
X156181663Y-145546890D01*
X156152931Y-145616255D01*
X156010551Y-145829342D01*
X155829342Y-146010551D01*
X155829339Y-146010553D01*
X155616255Y-146152931D01*
X155379488Y-146251003D01*
X155379487Y-146251003D01*
X155379485Y-146251004D01*
X155128139Y-146301000D01*
X154871861Y-146301000D01*
X154620515Y-146251004D01*
X154620513Y-146251003D01*
X154620512Y-146251003D01*
X154383745Y-146152931D01*
X154170661Y-146010553D01*
X154170658Y-146010551D01*
X153989449Y-145829342D01*
X153847069Y-145616255D01*
X153818337Y-145546890D01*
X153748997Y-145379488D01*
X153744396Y-145356356D01*
X153699000Y-145128139D01*
X153699000Y-144871861D01*
X153748996Y-144620515D01*
X153847069Y-144383745D01*
X153989449Y-144170658D01*
X154170658Y-143989449D01*
X154383745Y-143847069D01*
X154620512Y-143748997D01*
X154620513Y-143748997D01*
X154620515Y-143748996D01*
X154871861Y-143699000D01*
X155128139Y-143699000D01*
X155379485Y-143748996D01*
X155379485Y-143748996D01*
G37*
G36*
X105379485Y-143748996D02*
X105379487Y-143748997D01*
X105379488Y-143748997D01*
X105616255Y-143847069D01*
X105829342Y-143989449D01*
X106010551Y-144170658D01*
X106152931Y-144383745D01*
X106251004Y-144620515D01*
X106301000Y-144871861D01*
X106301000Y-145128139D01*
X106255605Y-145356356D01*
X106251003Y-145379488D01*
X106181663Y-145546890D01*
X106152931Y-145616255D01*
X106010551Y-145829342D01*
X105829342Y-146010551D01*
X105829339Y-146010553D01*
X105616255Y-146152931D01*
X105379488Y-146251003D01*
X105379487Y-146251003D01*
X105379485Y-146251004D01*
X105128139Y-146301000D01*
X104871861Y-146301000D01*
X104620515Y-146251004D01*
X104620513Y-146251003D01*
X104620512Y-146251003D01*
X104383745Y-146152931D01*
X104170661Y-146010553D01*
X104170658Y-146010551D01*
X103989449Y-145829342D01*
X103847069Y-145616255D01*
X103818337Y-145546890D01*
X103748997Y-145379488D01*
X103744396Y-145356356D01*
X103699000Y-145128139D01*
X103699000Y-144871861D01*
X103748996Y-144620515D01*
X103847069Y-144383745D01*
X103989449Y-144170658D01*
X104170658Y-143989449D01*
X104383745Y-143847069D01*
X104620512Y-143748997D01*
X104620513Y-143748997D01*
X104620515Y-143748996D01*
X104871861Y-143699000D01*
X105128139Y-143699000D01*
X105379485Y-143748996D01*
X105379485Y-143748996D01*
G37*
G36*
X127753114Y-145131611D02*
X127852265Y-145161688D01*
X127943644Y-145210531D01*
X128023738Y-145276262D01*
X128089469Y-145356356D01*
X128138312Y-145447735D01*
X128168389Y-145546886D01*
X128178545Y-145650000D01*
X128168389Y-145753114D01*
X128138312Y-145852265D01*
X128089469Y-145943644D01*
X128023738Y-146023738D01*
X127943644Y-146089469D01*
X127852265Y-146138312D01*
X127753114Y-146168389D01*
X127675839Y-146176000D01*
X127324161Y-146176000D01*
X127246886Y-146168389D01*
X127147735Y-146138312D01*
X127056356Y-146089469D01*
X126976262Y-146023738D01*
X126910531Y-145943644D01*
X126861688Y-145852265D01*
X126831611Y-145753114D01*
X126821455Y-145650000D01*
X126831611Y-145546886D01*
X126861688Y-145447735D01*
X126910531Y-145356356D01*
X126976262Y-145276262D01*
X127056356Y-145210531D01*
X127147735Y-145161688D01*
X127246886Y-145131611D01*
X127324161Y-145124000D01*
X127675839Y-145124000D01*
X127753114Y-145131611D01*
X127753114Y-145131611D01*
G37*
G36*
X132753114Y-145131611D02*
X132852265Y-145161688D01*
X132943644Y-145210531D01*
X133023738Y-145276262D01*
X133089469Y-145356356D01*
X133138312Y-145447735D01*
X133168389Y-145546886D01*
X133178545Y-145650000D01*
X133168389Y-145753114D01*
X133138312Y-145852265D01*
X133089469Y-145943644D01*
X133023738Y-146023738D01*
X132943644Y-146089469D01*
X132852265Y-146138312D01*
X132753114Y-146168389D01*
X132675839Y-146176000D01*
X132324161Y-146176000D01*
X132246886Y-146168389D01*
X132147735Y-146138312D01*
X132056356Y-146089469D01*
X131976262Y-146023738D01*
X131910531Y-145943644D01*
X131861688Y-145852265D01*
X131831611Y-145753114D01*
X131821455Y-145650000D01*
X131831611Y-145546886D01*
X131861688Y-145447735D01*
X131910531Y-145356356D01*
X131976262Y-145276262D01*
X132056356Y-145210531D01*
X132147735Y-145161688D01*
X132246886Y-145131611D01*
X132324161Y-145124000D01*
X132675839Y-145124000D01*
X132753114Y-145131611D01*
X132753114Y-145131611D01*
G37*
G36*
X131706031Y-136164207D02*
X131904145Y-136224305D01*
X132086729Y-136321897D01*
X132246765Y-136453235D01*
X132246766Y-136453237D01*
X132246768Y-136453238D01*
X132325568Y-136549257D01*
X132378103Y-136613271D01*
X132475695Y-136795854D01*
X132535793Y-136993968D01*
X132551000Y-137148370D01*
X132551000Y-137851629D01*
X132535793Y-138006031D01*
X132516357Y-138070101D01*
X132475695Y-138204147D01*
X132454927Y-138243000D01*
X132378103Y-138386729D01*
X132246765Y-138546765D01*
X132086729Y-138678103D01*
X131904146Y-138775695D01*
X131706032Y-138835793D01*
X131500000Y-138856085D01*
X131293969Y-138835793D01*
X131095855Y-138775695D01*
X130913272Y-138678103D01*
X130753236Y-138546765D01*
X130621899Y-138386731D01*
X130524306Y-138204148D01*
X130504273Y-138138108D01*
X130464207Y-138006032D01*
X130449000Y-137851630D01*
X130449000Y-137148371D01*
X130464207Y-136993969D01*
X130524305Y-136795855D01*
X130621897Y-136613271D01*
X130753235Y-136453235D01*
X130753237Y-136453234D01*
X130753238Y-136453232D01*
X130913269Y-136321899D01*
X130913271Y-136321897D01*
X131095854Y-136224305D01*
X131293968Y-136164207D01*
X131500000Y-136143915D01*
X131706031Y-136164207D01*
X131706031Y-136164207D01*
G37*
G36*
X130011000Y-138851000D02*
X127909000Y-138851000D01*
X127909000Y-136149000D01*
X130011000Y-136149000D01*
X130011000Y-138851000D01*
X130011000Y-138851000D01*
G37*
G36*
X154686227Y-136143915D02*
X154811032Y-136156207D01*
X155009146Y-136216305D01*
X155191729Y-136313897D01*
X155351765Y-136445235D01*
X155483103Y-136605271D01*
X155580695Y-136787854D01*
X155640793Y-136985968D01*
X155661085Y-137192000D01*
X155640793Y-137398032D01*
X155580695Y-137596146D01*
X155483103Y-137778729D01*
X155351765Y-137938765D01*
X155191729Y-138070103D01*
X155009146Y-138167695D01*
X154811032Y-138227793D01*
X154687510Y-138239959D01*
X154656631Y-138243000D01*
X153953369Y-138243000D01*
X153922490Y-138239959D01*
X153798968Y-138227793D01*
X153600854Y-138167695D01*
X153418271Y-138070103D01*
X153258235Y-137938765D01*
X153126897Y-137778729D01*
X153029305Y-137596146D01*
X152969207Y-137398032D01*
X152948915Y-137192000D01*
X152969207Y-136985968D01*
X153029305Y-136787854D01*
X153126897Y-136605271D01*
X153258235Y-136445235D01*
X153418271Y-136313897D01*
X153600854Y-136216305D01*
X153798968Y-136156207D01*
X153923773Y-136143915D01*
X153953369Y-136141000D01*
X154656631Y-136141000D01*
X154686227Y-136143915D01*
X154686227Y-136143915D01*
G37*
G36*
X145851000Y-137027000D02*
X144149000Y-137027000D01*
X144149000Y-135325000D01*
X145851000Y-135325000D01*
X145851000Y-137027000D01*
X145851000Y-137027000D01*
G37*
G36*
X154687510Y-133604041D02*
X154811032Y-133616207D01*
X155009146Y-133676305D01*
X155191729Y-133773897D01*
X155351765Y-133905235D01*
X155483103Y-134065271D01*
X155580695Y-134247854D01*
X155640793Y-134445968D01*
X155661085Y-134652000D01*
X155640793Y-134858032D01*
X155580695Y-135056146D01*
X155483103Y-135238729D01*
X155351765Y-135398765D01*
X155191729Y-135530103D01*
X155009146Y-135627695D01*
X154811032Y-135687793D01*
X154687510Y-135699959D01*
X154656631Y-135703000D01*
X153953369Y-135703000D01*
X153922490Y-135699959D01*
X153798968Y-135687793D01*
X153600854Y-135627695D01*
X153418271Y-135530103D01*
X153258235Y-135398765D01*
X153126897Y-135238729D01*
X153029305Y-135056146D01*
X152969207Y-134858032D01*
X152948915Y-134652000D01*
X152969207Y-134445968D01*
X153029305Y-134247854D01*
X153126897Y-134065271D01*
X153258235Y-133905235D01*
X153418271Y-133773897D01*
X153600854Y-133676305D01*
X153798968Y-133616207D01*
X153922490Y-133604041D01*
X153953369Y-133601000D01*
X154656631Y-133601000D01*
X154687510Y-133604041D01*
X154687510Y-133604041D01*
G37*
G36*
X145248228Y-133357703D02*
X145403100Y-133421853D01*
X145542481Y-133514985D01*
X145661015Y-133633519D01*
X145754147Y-133772900D01*
X145818297Y-133927772D01*
X145851000Y-134092184D01*
X145851000Y-134259816D01*
X145818297Y-134424228D01*
X145754147Y-134579100D01*
X145661015Y-134718481D01*
X145542481Y-134837015D01*
X145403100Y-134930147D01*
X145248228Y-134994297D01*
X145083816Y-135027000D01*
X144916184Y-135027000D01*
X144751772Y-134994297D01*
X144596900Y-134930147D01*
X144457519Y-134837015D01*
X144338985Y-134718481D01*
X144245853Y-134579100D01*
X144181703Y-134424228D01*
X144149000Y-134259816D01*
X144149000Y-134092184D01*
X144181703Y-133927772D01*
X144245853Y-133772900D01*
X144338985Y-133633519D01*
X144457519Y-133514985D01*
X144596900Y-133421853D01*
X144751772Y-133357703D01*
X144916184Y-133325000D01*
X145083816Y-133325000D01*
X145248228Y-133357703D01*
X145248228Y-133357703D01*
G37*
G36*
X114851000Y-133851000D02*
X113149000Y-133851000D01*
X113149000Y-132149000D01*
X114851000Y-132149000D01*
X114851000Y-133851000D01*
X114851000Y-133851000D01*
G37*
G36*
X111748228Y-132181703D02*
X111903100Y-132245853D01*
X112042481Y-132338985D01*
X112161015Y-132457519D01*
X112254147Y-132596900D01*
X112318297Y-132751772D01*
X112351000Y-132916184D01*
X112351000Y-133083816D01*
X112318297Y-133248228D01*
X112254147Y-133403100D01*
X112161015Y-133542481D01*
X112042481Y-133661015D01*
X111903100Y-133754147D01*
X111748228Y-133818297D01*
X111583816Y-133851000D01*
X111416184Y-133851000D01*
X111251772Y-133818297D01*
X111096900Y-133754147D01*
X110957519Y-133661015D01*
X110838985Y-133542481D01*
X110745853Y-133403100D01*
X110681703Y-133248228D01*
X110649000Y-133083816D01*
X110649000Y-132916184D01*
X110681703Y-132751772D01*
X110745853Y-132596900D01*
X110838985Y-132457519D01*
X110957519Y-132338985D01*
X111096900Y-132245853D01*
X111251772Y-132181703D01*
X111416184Y-132149000D01*
X111583816Y-132149000D01*
X111748228Y-132181703D01*
X111748228Y-132181703D01*
G37*
G36*
X121851000Y-133851000D02*
X120149000Y-133851000D01*
X120149000Y-132149000D01*
X121851000Y-132149000D01*
X121851000Y-133851000D01*
X121851000Y-133851000D01*
G37*
G36*
X118748228Y-132181703D02*
X118903100Y-132245853D01*
X119042481Y-132338985D01*
X119161015Y-132457519D01*
X119254147Y-132596900D01*
X119318297Y-132751772D01*
X119351000Y-132916184D01*
X119351000Y-133083816D01*
X119318297Y-133248228D01*
X119254147Y-133403100D01*
X119161015Y-133542481D01*
X119042481Y-133661015D01*
X118903100Y-133754147D01*
X118748228Y-133818297D01*
X118583816Y-133851000D01*
X118416184Y-133851000D01*
X118251772Y-133818297D01*
X118096900Y-133754147D01*
X117957519Y-133661015D01*
X117838985Y-133542481D01*
X117745853Y-133403100D01*
X117681703Y-133248228D01*
X117649000Y-133083816D01*
X117649000Y-132916184D01*
X117681703Y-132751772D01*
X117745853Y-132596900D01*
X117838985Y-132457519D01*
X117957519Y-132338985D01*
X118096900Y-132245853D01*
X118251772Y-132181703D01*
X118416184Y-132149000D01*
X118583816Y-132149000D01*
X118748228Y-132181703D01*
X118748228Y-132181703D01*
G37*
G36*
X155656000Y-133163000D02*
X152954000Y-133163000D01*
X152954000Y-131061000D01*
X155656000Y-131061000D01*
X155656000Y-133163000D01*
X155656000Y-133163000D01*
G37*
G36*
X106400442Y-117435518D02*
X106466627Y-117442037D01*
X106579853Y-117476384D01*
X106636467Y-117493557D01*
X106775087Y-117567652D01*
X106792991Y-117577222D01*
X106828729Y-117606552D01*
X106930186Y-117689814D01*
X107013448Y-117791271D01*
X107042778Y-117827009D01*
X107042779Y-117827011D01*
X107126443Y-117983533D01*
X107126443Y-117983534D01*
X107177963Y-118153373D01*
X107195359Y-118330000D01*
X107177963Y-118506627D01*
X107143616Y-118619853D01*
X107126443Y-118676467D01*
X107052348Y-118815087D01*
X107042778Y-118832991D01*
X107013448Y-118868729D01*
X106930186Y-118970186D01*
X106828729Y-119053448D01*
X106792991Y-119082778D01*
X106792989Y-119082779D01*
X106636467Y-119166443D01*
X106579853Y-119183616D01*
X106466627Y-119217963D01*
X106400442Y-119224482D01*
X106334260Y-119231000D01*
X106245740Y-119231000D01*
X106179558Y-119224482D01*
X106113373Y-119217963D01*
X106000147Y-119183616D01*
X105943533Y-119166443D01*
X105787011Y-119082779D01*
X105787009Y-119082778D01*
X105751271Y-119053448D01*
X105649814Y-118970186D01*
X105566552Y-118868729D01*
X105537222Y-118832991D01*
X105527652Y-118815087D01*
X105453557Y-118676467D01*
X105436384Y-118619853D01*
X105402037Y-118506627D01*
X105384641Y-118330000D01*
X105402037Y-118153373D01*
X105453557Y-117983534D01*
X105453557Y-117983533D01*
X105537221Y-117827011D01*
X105537222Y-117827009D01*
X105566552Y-117791271D01*
X105649814Y-117689814D01*
X105751271Y-117606552D01*
X105787009Y-117577222D01*
X105804913Y-117567652D01*
X105943533Y-117493557D01*
X106000147Y-117476384D01*
X106113373Y-117442037D01*
X106179558Y-117435518D01*
X106245740Y-117429000D01*
X106334260Y-117429000D01*
X106400442Y-117435518D01*
X106400442Y-117435518D01*
G37*
G36*
X103860442Y-117435518D02*
X103926627Y-117442037D01*
X104039853Y-117476384D01*
X104096467Y-117493557D01*
X104235087Y-117567652D01*
X104252991Y-117577222D01*
X104288729Y-117606552D01*
X104390186Y-117689814D01*
X104473448Y-117791271D01*
X104502778Y-117827009D01*
X104502779Y-117827011D01*
X104586443Y-117983533D01*
X104586443Y-117983534D01*
X104637963Y-118153373D01*
X104655359Y-118330000D01*
X104637963Y-118506627D01*
X104603616Y-118619853D01*
X104586443Y-118676467D01*
X104512348Y-118815087D01*
X104502778Y-118832991D01*
X104473448Y-118868729D01*
X104390186Y-118970186D01*
X104288729Y-119053448D01*
X104252991Y-119082778D01*
X104252989Y-119082779D01*
X104096467Y-119166443D01*
X104039853Y-119183616D01*
X103926627Y-119217963D01*
X103860442Y-119224482D01*
X103794260Y-119231000D01*
X103705740Y-119231000D01*
X103639558Y-119224482D01*
X103573373Y-119217963D01*
X103460147Y-119183616D01*
X103403533Y-119166443D01*
X103247011Y-119082779D01*
X103247009Y-119082778D01*
X103211271Y-119053448D01*
X103109814Y-118970186D01*
X103026552Y-118868729D01*
X102997222Y-118832991D01*
X102987652Y-118815087D01*
X102913557Y-118676467D01*
X102896384Y-118619853D01*
X102862037Y-118506627D01*
X102844641Y-118330000D01*
X102862037Y-118153373D01*
X102913557Y-117983534D01*
X102913557Y-117983533D01*
X102997221Y-117827011D01*
X102997222Y-117827009D01*
X103026552Y-117791271D01*
X103109814Y-117689814D01*
X103211271Y-117606552D01*
X103247009Y-117577222D01*
X103264913Y-117567652D01*
X103403533Y-117493557D01*
X103460147Y-117476384D01*
X103573373Y-117442037D01*
X103639558Y-117435518D01*
X103705740Y-117429000D01*
X103794260Y-117429000D01*
X103860442Y-117435518D01*
X103860442Y-117435518D01*
G37*
G36*
X106400443Y-114895519D02*
X106466627Y-114902037D01*
X106579853Y-114936384D01*
X106636467Y-114953557D01*
X106775087Y-115027652D01*
X106792991Y-115037222D01*
X106828729Y-115066552D01*
X106930186Y-115149814D01*
X107013448Y-115251271D01*
X107042778Y-115287009D01*
X107042779Y-115287011D01*
X107126443Y-115443533D01*
X107126443Y-115443534D01*
X107177963Y-115613373D01*
X107195359Y-115790000D01*
X107177963Y-115966627D01*
X107143616Y-116079853D01*
X107126443Y-116136467D01*
X107052348Y-116275087D01*
X107042778Y-116292991D01*
X107013448Y-116328729D01*
X106930186Y-116430186D01*
X106828729Y-116513448D01*
X106792991Y-116542778D01*
X106792989Y-116542779D01*
X106636467Y-116626443D01*
X106579853Y-116643616D01*
X106466627Y-116677963D01*
X106400443Y-116684481D01*
X106334260Y-116691000D01*
X106245740Y-116691000D01*
X106179557Y-116684481D01*
X106113373Y-116677963D01*
X106000147Y-116643616D01*
X105943533Y-116626443D01*
X105787011Y-116542779D01*
X105787009Y-116542778D01*
X105751271Y-116513448D01*
X105649814Y-116430186D01*
X105566552Y-116328729D01*
X105537222Y-116292991D01*
X105527652Y-116275087D01*
X105453557Y-116136467D01*
X105436384Y-116079853D01*
X105402037Y-115966627D01*
X105384641Y-115790000D01*
X105402037Y-115613373D01*
X105453557Y-115443534D01*
X105453557Y-115443533D01*
X105537221Y-115287011D01*
X105537222Y-115287009D01*
X105566552Y-115251271D01*
X105649814Y-115149814D01*
X105751271Y-115066552D01*
X105787009Y-115037222D01*
X105804913Y-115027652D01*
X105943533Y-114953557D01*
X106000147Y-114936384D01*
X106113373Y-114902037D01*
X106179557Y-114895519D01*
X106245740Y-114889000D01*
X106334260Y-114889000D01*
X106400443Y-114895519D01*
X106400443Y-114895519D01*
G37*
G36*
X103860443Y-114895519D02*
X103926627Y-114902037D01*
X104039853Y-114936384D01*
X104096467Y-114953557D01*
X104235087Y-115027652D01*
X104252991Y-115037222D01*
X104288729Y-115066552D01*
X104390186Y-115149814D01*
X104473448Y-115251271D01*
X104502778Y-115287009D01*
X104502779Y-115287011D01*
X104586443Y-115443533D01*
X104586443Y-115443534D01*
X104637963Y-115613373D01*
X104655359Y-115790000D01*
X104637963Y-115966627D01*
X104603616Y-116079853D01*
X104586443Y-116136467D01*
X104512348Y-116275087D01*
X104502778Y-116292991D01*
X104473448Y-116328729D01*
X104390186Y-116430186D01*
X104288729Y-116513448D01*
X104252991Y-116542778D01*
X104252989Y-116542779D01*
X104096467Y-116626443D01*
X104039853Y-116643616D01*
X103926627Y-116677963D01*
X103860443Y-116684481D01*
X103794260Y-116691000D01*
X103705740Y-116691000D01*
X103639557Y-116684481D01*
X103573373Y-116677963D01*
X103460147Y-116643616D01*
X103403533Y-116626443D01*
X103247011Y-116542779D01*
X103247009Y-116542778D01*
X103211271Y-116513448D01*
X103109814Y-116430186D01*
X103026552Y-116328729D01*
X102997222Y-116292991D01*
X102987652Y-116275087D01*
X102913557Y-116136467D01*
X102896384Y-116079853D01*
X102862037Y-115966627D01*
X102844641Y-115790000D01*
X102862037Y-115613373D01*
X102913557Y-115443534D01*
X102913557Y-115443533D01*
X102997221Y-115287011D01*
X102997222Y-115287009D01*
X103026552Y-115251271D01*
X103109814Y-115149814D01*
X103211271Y-115066552D01*
X103247009Y-115037222D01*
X103264913Y-115027652D01*
X103403533Y-114953557D01*
X103460147Y-114936384D01*
X103573373Y-114902037D01*
X103639557Y-114895519D01*
X103705740Y-114889000D01*
X103794260Y-114889000D01*
X103860443Y-114895519D01*
X103860443Y-114895519D01*
G37*
G36*
X106400442Y-112355518D02*
X106466627Y-112362037D01*
X106579853Y-112396384D01*
X106636467Y-112413557D01*
X106775087Y-112487652D01*
X106792991Y-112497222D01*
X106828729Y-112526552D01*
X106930186Y-112609814D01*
X107013448Y-112711271D01*
X107042778Y-112747009D01*
X107042779Y-112747011D01*
X107126443Y-112903533D01*
X107126443Y-112903534D01*
X107177963Y-113073373D01*
X107195359Y-113250000D01*
X107177963Y-113426627D01*
X107143616Y-113539853D01*
X107126443Y-113596467D01*
X107052348Y-113735087D01*
X107042778Y-113752991D01*
X107013448Y-113788729D01*
X106930186Y-113890186D01*
X106828729Y-113973448D01*
X106792991Y-114002778D01*
X106792989Y-114002779D01*
X106636467Y-114086443D01*
X106579853Y-114103616D01*
X106466627Y-114137963D01*
X106400442Y-114144482D01*
X106334260Y-114151000D01*
X106245740Y-114151000D01*
X106179558Y-114144482D01*
X106113373Y-114137963D01*
X106000147Y-114103616D01*
X105943533Y-114086443D01*
X105787011Y-114002779D01*
X105787009Y-114002778D01*
X105751271Y-113973448D01*
X105649814Y-113890186D01*
X105566552Y-113788729D01*
X105537222Y-113752991D01*
X105527652Y-113735087D01*
X105453557Y-113596467D01*
X105436384Y-113539853D01*
X105402037Y-113426627D01*
X105384641Y-113250000D01*
X105402037Y-113073373D01*
X105453557Y-112903534D01*
X105453557Y-112903533D01*
X105537221Y-112747011D01*
X105537222Y-112747009D01*
X105566552Y-112711271D01*
X105649814Y-112609814D01*
X105751271Y-112526552D01*
X105787009Y-112497222D01*
X105804913Y-112487652D01*
X105943533Y-112413557D01*
X106000147Y-112396384D01*
X106113373Y-112362037D01*
X106179558Y-112355518D01*
X106245740Y-112349000D01*
X106334260Y-112349000D01*
X106400442Y-112355518D01*
X106400442Y-112355518D01*
G37*
G36*
X104651000Y-114151000D02*
X102849000Y-114151000D01*
X102849000Y-112349000D01*
X104651000Y-112349000D01*
X104651000Y-114151000D01*
X104651000Y-114151000D01*
G37*
G36*
X149839694Y-111098633D02*
X150012094Y-111150931D01*
X150012096Y-111150932D01*
X150170983Y-111235859D01*
X150170985Y-111235860D01*
X150170984Y-111235860D01*
X150310249Y-111350151D01*
X150424540Y-111489416D01*
X150509469Y-111648306D01*
X150561767Y-111820706D01*
X150579425Y-112000000D01*
X150561767Y-112179294D01*
X150510286Y-112349000D01*
X150509468Y-112351696D01*
X150424541Y-112510583D01*
X150310249Y-112649849D01*
X150170983Y-112764141D01*
X150012096Y-112849068D01*
X150012094Y-112849069D01*
X149839694Y-112901367D01*
X149705331Y-112914600D01*
X148294669Y-112914600D01*
X148160306Y-112901367D01*
X147987906Y-112849069D01*
X147987904Y-112849068D01*
X147829017Y-112764141D01*
X147689751Y-112649849D01*
X147575459Y-112510583D01*
X147490532Y-112351696D01*
X147489714Y-112349000D01*
X147438233Y-112179294D01*
X147420575Y-112000000D01*
X147438233Y-111820706D01*
X147490531Y-111648306D01*
X147575460Y-111489416D01*
X147689751Y-111350151D01*
X147829016Y-111235860D01*
X147829015Y-111235860D01*
X147829017Y-111235859D01*
X147987904Y-111150932D01*
X147987906Y-111150931D01*
X148160306Y-111098633D01*
X148294669Y-111085400D01*
X149705331Y-111085400D01*
X149839694Y-111098633D01*
X149839694Y-111098633D01*
G37*
G36*
X137339694Y-111098633D02*
X137512094Y-111150931D01*
X137512096Y-111150932D01*
X137670983Y-111235859D01*
X137670985Y-111235860D01*
X137670984Y-111235860D01*
X137810249Y-111350151D01*
X137924540Y-111489416D01*
X138009469Y-111648306D01*
X138061767Y-111820706D01*
X138079425Y-112000000D01*
X138061767Y-112179294D01*
X138010286Y-112349000D01*
X138009468Y-112351696D01*
X137924541Y-112510583D01*
X137810249Y-112649849D01*
X137670983Y-112764141D01*
X137512096Y-112849068D01*
X137512094Y-112849069D01*
X137339694Y-112901367D01*
X137205331Y-112914600D01*
X135794669Y-112914600D01*
X135660306Y-112901367D01*
X135487906Y-112849069D01*
X135487904Y-112849068D01*
X135329017Y-112764141D01*
X135189751Y-112649849D01*
X135075459Y-112510583D01*
X134990532Y-112351696D01*
X134989714Y-112349000D01*
X134938233Y-112179294D01*
X134920575Y-112000000D01*
X134938233Y-111820706D01*
X134990531Y-111648306D01*
X135075460Y-111489416D01*
X135189751Y-111350151D01*
X135329016Y-111235860D01*
X135329015Y-111235860D01*
X135329017Y-111235859D01*
X135487904Y-111150932D01*
X135487906Y-111150931D01*
X135660306Y-111098633D01*
X135794669Y-111085400D01*
X137205331Y-111085400D01*
X137339694Y-111098633D01*
X137339694Y-111098633D01*
G37*
G36*
X149839694Y-106098633D02*
X150012094Y-106150931D01*
X150012096Y-106150932D01*
X150170983Y-106235859D01*
X150170985Y-106235860D01*
X150170984Y-106235860D01*
X150310249Y-106350151D01*
X150424540Y-106489416D01*
X150509469Y-106648306D01*
X150561767Y-106820706D01*
X150579425Y-107000000D01*
X150561767Y-107179294D01*
X150509469Y-107351694D01*
X150509468Y-107351696D01*
X150424541Y-107510583D01*
X150310249Y-107649849D01*
X150170983Y-107764141D01*
X150012096Y-107849068D01*
X150012094Y-107849069D01*
X149839694Y-107901367D01*
X149705331Y-107914600D01*
X148294669Y-107914600D01*
X148160306Y-107901367D01*
X147987906Y-107849069D01*
X147987904Y-107849068D01*
X147829017Y-107764141D01*
X147689751Y-107649849D01*
X147575459Y-107510583D01*
X147490532Y-107351696D01*
X147490531Y-107351694D01*
X147438233Y-107179294D01*
X147420575Y-107000000D01*
X147438233Y-106820706D01*
X147490531Y-106648306D01*
X147575460Y-106489416D01*
X147689751Y-106350151D01*
X147829016Y-106235860D01*
X147829015Y-106235860D01*
X147829017Y-106235859D01*
X147987904Y-106150932D01*
X147987906Y-106150931D01*
X148160306Y-106098633D01*
X148294669Y-106085400D01*
X149705331Y-106085400D01*
X149839694Y-106098633D01*
X149839694Y-106098633D01*
G37*
G36*
X137339694Y-106098633D02*
X137512094Y-106150931D01*
X137512096Y-106150932D01*
X137670983Y-106235859D01*
X137670985Y-106235860D01*
X137670984Y-106235860D01*
X137810249Y-106350151D01*
X137924540Y-106489416D01*
X138009469Y-106648306D01*
X138061767Y-106820706D01*
X138079425Y-107000000D01*
X138061767Y-107179294D01*
X138009469Y-107351694D01*
X138009468Y-107351696D01*
X137924541Y-107510583D01*
X137810249Y-107649849D01*
X137670983Y-107764141D01*
X137512096Y-107849068D01*
X137512094Y-107849069D01*
X137339694Y-107901367D01*
X137205331Y-107914600D01*
X135794669Y-107914600D01*
X135660306Y-107901367D01*
X135487906Y-107849069D01*
X135487904Y-107849068D01*
X135329017Y-107764141D01*
X135189751Y-107649849D01*
X135075459Y-107510583D01*
X134990532Y-107351696D01*
X134990531Y-107351694D01*
X134938233Y-107179294D01*
X134920575Y-107000000D01*
X134938233Y-106820706D01*
X134990531Y-106648306D01*
X135075460Y-106489416D01*
X135189751Y-106350151D01*
X135329016Y-106235860D01*
X135329015Y-106235860D01*
X135329017Y-106235859D01*
X135487904Y-106150932D01*
X135487906Y-106150931D01*
X135660306Y-106098633D01*
X135794669Y-106085400D01*
X137205331Y-106085400D01*
X137339694Y-106098633D01*
X137339694Y-106098633D01*
G37*
G36*
X105379485Y-103748996D02*
X105379487Y-103748997D01*
X105379488Y-103748997D01*
X105616255Y-103847069D01*
X105829342Y-103989449D01*
X106010551Y-104170658D01*
X106152931Y-104383745D01*
X106251004Y-104620515D01*
X106301000Y-104871861D01*
X106301000Y-105128139D01*
X106251004Y-105379485D01*
X106152931Y-105616255D01*
X106010551Y-105829342D01*
X105829342Y-106010551D01*
X105829339Y-106010553D01*
X105616255Y-106152931D01*
X105379488Y-106251003D01*
X105379487Y-106251003D01*
X105379485Y-106251004D01*
X105128139Y-106301000D01*
X104871861Y-106301000D01*
X104620515Y-106251004D01*
X104620513Y-106251003D01*
X104620512Y-106251003D01*
X104383745Y-106152931D01*
X104170661Y-106010553D01*
X104170658Y-106010551D01*
X103989449Y-105829342D01*
X103847069Y-105616255D01*
X103748996Y-105379485D01*
X103699000Y-105128139D01*
X103699000Y-104871861D01*
X103748996Y-104620515D01*
X103847069Y-104383745D01*
X103989449Y-104170658D01*
X104170658Y-103989449D01*
X104383745Y-103847069D01*
X104620512Y-103748997D01*
X104620513Y-103748997D01*
X104620515Y-103748996D01*
X104871861Y-103699000D01*
X105128139Y-103699000D01*
X105379485Y-103748996D01*
X105379485Y-103748996D01*
G37*
G36*
X155379485Y-103748996D02*
X155379487Y-103748997D01*
X155379488Y-103748997D01*
X155616255Y-103847069D01*
X155829342Y-103989449D01*
X156010551Y-104170658D01*
X156152931Y-104383745D01*
X156251004Y-104620515D01*
X156301000Y-104871861D01*
X156301000Y-105128139D01*
X156251004Y-105379485D01*
X156152931Y-105616255D01*
X156010551Y-105829342D01*
X155829342Y-106010551D01*
X155829339Y-106010553D01*
X155616255Y-106152931D01*
X155379488Y-106251003D01*
X155379487Y-106251003D01*
X155379485Y-106251004D01*
X155128139Y-106301000D01*
X154871861Y-106301000D01*
X154620515Y-106251004D01*
X154620513Y-106251003D01*
X154620512Y-106251003D01*
X154383745Y-106152931D01*
X154170661Y-106010553D01*
X154170658Y-106010551D01*
X153989449Y-105829342D01*
X153847069Y-105616255D01*
X153748996Y-105379485D01*
X153699000Y-105128139D01*
X153699000Y-104871861D01*
X153748996Y-104620515D01*
X153847069Y-104383745D01*
X153989449Y-104170658D01*
X154170658Y-103989449D01*
X154383745Y-103847069D01*
X154620512Y-103748997D01*
X154620513Y-103748997D01*
X154620515Y-103748996D01*
X154871861Y-103699000D01*
X155128139Y-103699000D01*
X155379485Y-103748996D01*
X155379485Y-103748996D01*
G37*
M02*
