G04 #@! TF.GenerationSoftware,KiCad,Pcbnew,5.0.1*
G04 #@! TF.CreationDate,2018-11-13T22:10:38+00:00*
G04 #@! TF.ProjectId,ESP8266-WS2812B,455350383236362D575332383132422E,rev?*
G04 #@! TF.SameCoordinates,Original*
G04 #@! TF.FileFunction,Copper,L2,Bot,Signal*
G04 #@! TF.FilePolarity,Positive*
%FSLAX46Y46*%
G04 Gerber Fmt 4.6, Leading zero omitted, Abs format (unit mm)*
G04 Created by KiCad (PCBNEW 5.0.1) date Tue 13 Nov 2018 22:10:38 GMT*
%MOMM*%
%LPD*%
G01*
G04 APERTURE LIST*
G04 #@! TA.AperFunction,ComponentPad*
%ADD10C,1.600000*%
G04 #@! TD*
G04 #@! TA.AperFunction,ComponentPad*
%ADD11R,1.600000X1.600000*%
G04 #@! TD*
G04 #@! TA.AperFunction,ComponentPad*
%ADD12O,1.000000X1.550000*%
G04 #@! TD*
G04 #@! TA.AperFunction,ComponentPad*
%ADD13O,1.250000X0.950000*%
G04 #@! TD*
G04 #@! TA.AperFunction,ComponentPad*
%ADD14O,2.000000X2.600000*%
G04 #@! TD*
G04 #@! TA.AperFunction,ComponentPad*
%ADD15R,2.000000X2.600000*%
G04 #@! TD*
G04 #@! TA.AperFunction,ComponentPad*
%ADD16O,2.600000X2.000000*%
G04 #@! TD*
G04 #@! TA.AperFunction,ComponentPad*
%ADD17R,2.600000X2.000000*%
G04 #@! TD*
G04 #@! TA.AperFunction,ComponentPad*
%ADD18O,3.048000X1.727200*%
G04 #@! TD*
G04 #@! TA.AperFunction,ComponentPad*
%ADD19O,1.700000X1.700000*%
G04 #@! TD*
G04 #@! TA.AperFunction,ComponentPad*
%ADD20R,1.700000X1.700000*%
G04 #@! TD*
G04 #@! TA.AperFunction,ViaPad*
%ADD21C,0.800000*%
G04 #@! TD*
G04 #@! TA.AperFunction,Conductor*
%ADD22C,1.000000*%
G04 #@! TD*
G04 #@! TA.AperFunction,Conductor*
%ADD23C,0.400000*%
G04 #@! TD*
G04 #@! TA.AperFunction,Conductor*
%ADD24C,0.250000*%
G04 #@! TD*
G04 #@! TA.AperFunction,Conductor*
%ADD25C,0.300000*%
G04 #@! TD*
G04 #@! TA.AperFunction,Conductor*
%ADD26C,0.254000*%
G04 #@! TD*
G04 APERTURE END LIST*
D10*
G04 #@! TO.P,C1,2*
G04 #@! TO.N,GND*
X145000000Y-134176000D03*
D11*
G04 #@! TO.P,C1,1*
G04 #@! TO.N,+5V*
X145000000Y-136176000D03*
G04 #@! TD*
D10*
G04 #@! TO.P,C5,2*
G04 #@! TO.N,GND*
X118500000Y-133000000D03*
D11*
G04 #@! TO.P,C5,1*
G04 #@! TO.N,+5V*
X121000000Y-133000000D03*
G04 #@! TD*
G04 #@! TO.P,C6,1*
G04 #@! TO.N,+3V3*
X114000000Y-133000000D03*
D10*
G04 #@! TO.P,C6,2*
G04 #@! TO.N,GND*
X111500000Y-133000000D03*
G04 #@! TD*
D12*
G04 #@! TO.P,J1,6*
G04 #@! TO.N,GND*
X133500000Y-148350000D03*
X126500000Y-148350000D03*
D13*
X132500000Y-145650000D03*
X127500000Y-145650000D03*
G04 #@! TD*
D14*
G04 #@! TO.P,J2,2*
G04 #@! TO.N,GND*
X131500000Y-137500000D03*
D15*
G04 #@! TO.P,J2,1*
G04 #@! TO.N,/5V_Input*
X128960000Y-137500000D03*
G04 #@! TD*
D16*
G04 #@! TO.P,J4,3*
G04 #@! TO.N,+5V*
X154305000Y-137192000D03*
G04 #@! TO.P,J4,2*
G04 #@! TO.N,/DATA*
X154305000Y-134652000D03*
D17*
G04 #@! TO.P,J4,1*
G04 #@! TO.N,GND*
X154305000Y-132112000D03*
G04 #@! TD*
D18*
G04 #@! TO.P,SW1,2*
G04 #@! TO.N,/Button_Open_Side*
X149000000Y-107000000D03*
G04 #@! TO.P,SW1,1*
G04 #@! TO.N,/ESP8266/GPIO4*
X149000000Y-112000000D03*
G04 #@! TO.P,SW1,2*
G04 #@! TO.N,/Button_Open_Side*
X136500000Y-107000000D03*
G04 #@! TO.P,SW1,1*
G04 #@! TO.N,/ESP8266/GPIO4*
X136500000Y-112000000D03*
G04 #@! TD*
D19*
G04 #@! TO.P,J3,6*
G04 #@! TO.N,/GPIO0*
X106290000Y-118330000D03*
G04 #@! TO.P,J3,5*
G04 #@! TO.N,/TXD*
X103750000Y-118330000D03*
G04 #@! TO.P,J3,4*
G04 #@! TO.N,/RXD*
X106290000Y-115790000D03*
G04 #@! TO.P,J3,3*
G04 #@! TO.N,Net-(J3-Pad3)*
X103750000Y-115790000D03*
G04 #@! TO.P,J3,2*
G04 #@! TO.N,/~RST*
X106290000Y-113250000D03*
D20*
G04 #@! TO.P,J3,1*
G04 #@! TO.N,GND*
X103750000Y-113250000D03*
G04 #@! TD*
D21*
G04 #@! TO.N,+5V*
X125500000Y-132500016D03*
X125500000Y-131000000D03*
X124999998Y-140499998D03*
X149500000Y-129000000D03*
G04 #@! TO.N,+3V3*
X110000000Y-104000000D03*
X112000000Y-112000000D03*
X105999948Y-125000000D03*
X105000000Y-124000000D03*
X138500000Y-121000000D03*
X138500000Y-117000000D03*
X142000000Y-120500000D03*
X145000000Y-120500000D03*
X137500000Y-145500000D03*
G04 #@! TO.N,/ESP8266/GPIO2*
X141500000Y-128000000D03*
X133500000Y-120190000D03*
G04 #@! TO.N,/Button_Open_Side*
X146500000Y-124000000D03*
G04 #@! TO.N,/5V_Input*
X130500000Y-130500000D03*
X130000000Y-132000000D03*
X128000000Y-144000000D03*
X128500000Y-147500000D03*
G04 #@! TO.N,/GPIO0*
X120999958Y-115500000D03*
G04 #@! TO.N,/TXD*
X123000000Y-115500000D03*
G04 #@! TO.N,/RXD*
X126500000Y-112000000D03*
G04 #@! TD*
D22*
G04 #@! TO.N,+5V*
X133500000Y-128000000D02*
X125500000Y-128000000D01*
X135000000Y-129500000D02*
X133500000Y-128000000D01*
X145000000Y-136176000D02*
X137676000Y-136176000D01*
X135000000Y-133500000D02*
X135000000Y-129500000D01*
X137676000Y-136176000D02*
X135000000Y-133500000D01*
X146016000Y-137192000D02*
X154305000Y-137192000D01*
X145000000Y-136176000D02*
X146016000Y-137192000D01*
D23*
X149500000Y-129000000D02*
X149500000Y-133000000D01*
X146324000Y-136176000D02*
X145000000Y-136176000D01*
X149500000Y-133000000D02*
X146324000Y-136176000D01*
G04 #@! TO.N,/ESP8266/GPIO2*
X133690000Y-120190000D02*
X133500000Y-120190000D01*
X141500000Y-128000000D02*
X133690000Y-120190000D01*
G04 #@! TO.N,/ESP8266/GPIO4*
X136500000Y-112000000D02*
X149000000Y-112000000D01*
G04 #@! TO.N,/Button_Open_Side*
X147076000Y-107000000D02*
X136500000Y-107000000D01*
X149000000Y-107000000D02*
X147076000Y-107000000D01*
X149660400Y-107000000D02*
X152500000Y-109839600D01*
X149000000Y-107000000D02*
X149660400Y-107000000D01*
X152500000Y-109839600D02*
X152500000Y-118000000D01*
X152500000Y-118000000D02*
X146500000Y-124000000D01*
D24*
G04 #@! TO.N,/GPIO0*
X109120000Y-115500000D02*
X120434273Y-115500000D01*
X106290000Y-118330000D02*
X109120000Y-115500000D01*
X120434273Y-115500000D02*
X120999958Y-115500000D01*
D25*
G04 #@! TO.N,/TXD*
X119000000Y-117000000D02*
X121500000Y-117000000D01*
X104500000Y-120500000D02*
X115500000Y-120500000D01*
X103750000Y-118330000D02*
X103750000Y-119750000D01*
X121500000Y-117000000D02*
X123000000Y-115500000D01*
X115500000Y-120500000D02*
X119000000Y-117000000D01*
X103750000Y-119750000D02*
X104500000Y-120500000D01*
G04 #@! TO.N,/RXD*
X107492081Y-115790000D02*
X109282081Y-114000000D01*
X106290000Y-115790000D02*
X107492081Y-115790000D01*
X109282081Y-114000000D02*
X124000000Y-114000000D01*
X124000000Y-114000000D02*
X126000000Y-112000000D01*
X126000000Y-112000000D02*
X126500000Y-112000000D01*
G04 #@! TD*
D26*
G04 #@! TO.N,+5V*
G36*
X126873000Y-132873000D02*
X126000000Y-132873000D01*
X125951399Y-132882667D01*
X125910197Y-132910197D01*
X125882667Y-132951399D01*
X125873000Y-133000000D01*
X125873000Y-147128896D01*
X125681711Y-147256711D01*
X125430854Y-147632146D01*
X125365000Y-147963218D01*
X125365000Y-148736783D01*
X125430854Y-149067855D01*
X125579287Y-149290000D01*
X117127000Y-149290000D01*
X117127000Y-133435120D01*
X117283466Y-133812862D01*
X117687138Y-134216534D01*
X118214561Y-134435000D01*
X118785439Y-134435000D01*
X119312862Y-134216534D01*
X119576155Y-133953241D01*
X119661673Y-134159699D01*
X119840302Y-134338327D01*
X120073691Y-134435000D01*
X120714250Y-134435000D01*
X120873000Y-134276250D01*
X120873000Y-133127000D01*
X121127000Y-133127000D01*
X121127000Y-134276250D01*
X121285750Y-134435000D01*
X121926309Y-134435000D01*
X122159698Y-134338327D01*
X122338327Y-134159699D01*
X122435000Y-133926310D01*
X122435000Y-133285750D01*
X122276250Y-133127000D01*
X121127000Y-133127000D01*
X120873000Y-133127000D01*
X120853000Y-133127000D01*
X120853000Y-132873000D01*
X120873000Y-132873000D01*
X120873000Y-131723750D01*
X121127000Y-131723750D01*
X121127000Y-132873000D01*
X122276250Y-132873000D01*
X122435000Y-132714250D01*
X122435000Y-132073690D01*
X122338327Y-131840301D01*
X122159698Y-131661673D01*
X121926309Y-131565000D01*
X121285750Y-131565000D01*
X121127000Y-131723750D01*
X120873000Y-131723750D01*
X120714250Y-131565000D01*
X120073691Y-131565000D01*
X119840302Y-131661673D01*
X119661673Y-131840301D01*
X119576155Y-132046759D01*
X119312862Y-131783466D01*
X118785439Y-131565000D01*
X118214561Y-131565000D01*
X117687138Y-131783466D01*
X117283466Y-132187138D01*
X117127000Y-132564880D01*
X117127000Y-127127000D01*
X126873000Y-127127000D01*
X126873000Y-132873000D01*
X126873000Y-132873000D01*
G37*
X126873000Y-132873000D02*
X126000000Y-132873000D01*
X125951399Y-132882667D01*
X125910197Y-132910197D01*
X125882667Y-132951399D01*
X125873000Y-133000000D01*
X125873000Y-147128896D01*
X125681711Y-147256711D01*
X125430854Y-147632146D01*
X125365000Y-147963218D01*
X125365000Y-148736783D01*
X125430854Y-149067855D01*
X125579287Y-149290000D01*
X117127000Y-149290000D01*
X117127000Y-133435120D01*
X117283466Y-133812862D01*
X117687138Y-134216534D01*
X118214561Y-134435000D01*
X118785439Y-134435000D01*
X119312862Y-134216534D01*
X119576155Y-133953241D01*
X119661673Y-134159699D01*
X119840302Y-134338327D01*
X120073691Y-134435000D01*
X120714250Y-134435000D01*
X120873000Y-134276250D01*
X120873000Y-133127000D01*
X121127000Y-133127000D01*
X121127000Y-134276250D01*
X121285750Y-134435000D01*
X121926309Y-134435000D01*
X122159698Y-134338327D01*
X122338327Y-134159699D01*
X122435000Y-133926310D01*
X122435000Y-133285750D01*
X122276250Y-133127000D01*
X121127000Y-133127000D01*
X120873000Y-133127000D01*
X120853000Y-133127000D01*
X120853000Y-132873000D01*
X120873000Y-132873000D01*
X120873000Y-131723750D01*
X121127000Y-131723750D01*
X121127000Y-132873000D01*
X122276250Y-132873000D01*
X122435000Y-132714250D01*
X122435000Y-132073690D01*
X122338327Y-131840301D01*
X122159698Y-131661673D01*
X121926309Y-131565000D01*
X121285750Y-131565000D01*
X121127000Y-131723750D01*
X120873000Y-131723750D01*
X120714250Y-131565000D01*
X120073691Y-131565000D01*
X119840302Y-131661673D01*
X119661673Y-131840301D01*
X119576155Y-132046759D01*
X119312862Y-131783466D01*
X118785439Y-131565000D01*
X118214561Y-131565000D01*
X117687138Y-131783466D01*
X117283466Y-132187138D01*
X117127000Y-132564880D01*
X117127000Y-127127000D01*
X126873000Y-127127000D01*
X126873000Y-132873000D01*
G04 #@! TO.N,/5V_Input*
G36*
X131873000Y-135607163D02*
X131500000Y-135532969D01*
X130862055Y-135659864D01*
X130518635Y-135889330D01*
X130498327Y-135840301D01*
X130319698Y-135661673D01*
X130086309Y-135565000D01*
X129245750Y-135565000D01*
X129087000Y-135723750D01*
X129087000Y-137373000D01*
X129107000Y-137373000D01*
X129107000Y-137627000D01*
X129087000Y-137627000D01*
X129087000Y-139276250D01*
X129245750Y-139435000D01*
X130086309Y-139435000D01*
X130319698Y-139338327D01*
X130498327Y-139159699D01*
X130518635Y-139110670D01*
X130862056Y-139340136D01*
X131500000Y-139467031D01*
X131873000Y-139392837D01*
X131873000Y-144633736D01*
X131549735Y-144849735D01*
X131304403Y-145216900D01*
X131218254Y-145650000D01*
X131304403Y-146083100D01*
X131549735Y-146450265D01*
X131873000Y-146666264D01*
X131873000Y-149290000D01*
X127420713Y-149290000D01*
X127569146Y-149067854D01*
X127635000Y-148736782D01*
X127635000Y-147963217D01*
X127569146Y-147632145D01*
X127318289Y-147256711D01*
X127127000Y-147128896D01*
X127127000Y-146737388D01*
X127240676Y-146760000D01*
X127759324Y-146760000D01*
X128083100Y-146695597D01*
X128450265Y-146450265D01*
X128695597Y-146083100D01*
X128781746Y-145650000D01*
X128695597Y-145216900D01*
X128450265Y-144849735D01*
X128083100Y-144604403D01*
X127759324Y-144540000D01*
X127240676Y-144540000D01*
X127127000Y-144562612D01*
X127127000Y-137785750D01*
X127325000Y-137785750D01*
X127325000Y-138926310D01*
X127421673Y-139159699D01*
X127600302Y-139338327D01*
X127833691Y-139435000D01*
X128674250Y-139435000D01*
X128833000Y-139276250D01*
X128833000Y-137627000D01*
X127483750Y-137627000D01*
X127325000Y-137785750D01*
X127127000Y-137785750D01*
X127127000Y-136073690D01*
X127325000Y-136073690D01*
X127325000Y-137214250D01*
X127483750Y-137373000D01*
X128833000Y-137373000D01*
X128833000Y-135723750D01*
X128674250Y-135565000D01*
X127833691Y-135565000D01*
X127600302Y-135661673D01*
X127421673Y-135840301D01*
X127325000Y-136073690D01*
X127127000Y-136073690D01*
X127127000Y-134127000D01*
X128000000Y-134127000D01*
X128048601Y-134117333D01*
X128089803Y-134089803D01*
X128117333Y-134048601D01*
X128127000Y-134000000D01*
X128127000Y-129135000D01*
X131873000Y-129135000D01*
X131873000Y-135607163D01*
X131873000Y-135607163D01*
G37*
X131873000Y-135607163D02*
X131500000Y-135532969D01*
X130862055Y-135659864D01*
X130518635Y-135889330D01*
X130498327Y-135840301D01*
X130319698Y-135661673D01*
X130086309Y-135565000D01*
X129245750Y-135565000D01*
X129087000Y-135723750D01*
X129087000Y-137373000D01*
X129107000Y-137373000D01*
X129107000Y-137627000D01*
X129087000Y-137627000D01*
X129087000Y-139276250D01*
X129245750Y-139435000D01*
X130086309Y-139435000D01*
X130319698Y-139338327D01*
X130498327Y-139159699D01*
X130518635Y-139110670D01*
X130862056Y-139340136D01*
X131500000Y-139467031D01*
X131873000Y-139392837D01*
X131873000Y-144633736D01*
X131549735Y-144849735D01*
X131304403Y-145216900D01*
X131218254Y-145650000D01*
X131304403Y-146083100D01*
X131549735Y-146450265D01*
X131873000Y-146666264D01*
X131873000Y-149290000D01*
X127420713Y-149290000D01*
X127569146Y-149067854D01*
X127635000Y-148736782D01*
X127635000Y-147963217D01*
X127569146Y-147632145D01*
X127318289Y-147256711D01*
X127127000Y-147128896D01*
X127127000Y-146737388D01*
X127240676Y-146760000D01*
X127759324Y-146760000D01*
X128083100Y-146695597D01*
X128450265Y-146450265D01*
X128695597Y-146083100D01*
X128781746Y-145650000D01*
X128695597Y-145216900D01*
X128450265Y-144849735D01*
X128083100Y-144604403D01*
X127759324Y-144540000D01*
X127240676Y-144540000D01*
X127127000Y-144562612D01*
X127127000Y-137785750D01*
X127325000Y-137785750D01*
X127325000Y-138926310D01*
X127421673Y-139159699D01*
X127600302Y-139338327D01*
X127833691Y-139435000D01*
X128674250Y-139435000D01*
X128833000Y-139276250D01*
X128833000Y-137627000D01*
X127483750Y-137627000D01*
X127325000Y-137785750D01*
X127127000Y-137785750D01*
X127127000Y-136073690D01*
X127325000Y-136073690D01*
X127325000Y-137214250D01*
X127483750Y-137373000D01*
X128833000Y-137373000D01*
X128833000Y-135723750D01*
X128674250Y-135565000D01*
X127833691Y-135565000D01*
X127600302Y-135661673D01*
X127421673Y-135840301D01*
X127325000Y-136073690D01*
X127127000Y-136073690D01*
X127127000Y-134127000D01*
X128000000Y-134127000D01*
X128048601Y-134117333D01*
X128089803Y-134089803D01*
X128117333Y-134048601D01*
X128127000Y-134000000D01*
X128127000Y-129135000D01*
X131873000Y-129135000D01*
X131873000Y-135607163D01*
G04 #@! TO.N,+3V3*
G36*
X159290000Y-149290000D02*
X134420713Y-149290000D01*
X134569146Y-149067854D01*
X134635000Y-148736782D01*
X134635000Y-147963217D01*
X134569146Y-147632145D01*
X134318289Y-147256711D01*
X133942854Y-147005854D01*
X133500000Y-146917765D01*
X133057145Y-147005854D01*
X132681711Y-147256711D01*
X132635000Y-147326619D01*
X132635000Y-146760000D01*
X132759324Y-146760000D01*
X133083100Y-146695597D01*
X133450265Y-146450265D01*
X133695597Y-146083100D01*
X133781746Y-145650000D01*
X133695597Y-145216900D01*
X133450265Y-144849735D01*
X133114001Y-144625050D01*
X153115000Y-144625050D01*
X153115000Y-145374950D01*
X153401974Y-146067767D01*
X153932233Y-146598026D01*
X154625050Y-146885000D01*
X155374950Y-146885000D01*
X156067767Y-146598026D01*
X156598026Y-146067767D01*
X156885000Y-145374950D01*
X156885000Y-144625050D01*
X156598026Y-143932233D01*
X156067767Y-143401974D01*
X155374950Y-143115000D01*
X154625050Y-143115000D01*
X153932233Y-143401974D01*
X153401974Y-143932233D01*
X153115000Y-144625050D01*
X133114001Y-144625050D01*
X133083100Y-144604403D01*
X132759324Y-144540000D01*
X132635000Y-144540000D01*
X132635000Y-139008015D01*
X132678769Y-138978769D01*
X133040136Y-138437945D01*
X133135000Y-137961030D01*
X133135000Y-137038969D01*
X133040136Y-136562055D01*
X132678769Y-136021231D01*
X132635000Y-135991986D01*
X132635000Y-129135000D01*
X133029869Y-129135000D01*
X133865001Y-129970133D01*
X133865000Y-133388217D01*
X133842765Y-133500000D01*
X133865000Y-133611782D01*
X133930854Y-133942854D01*
X134181711Y-134318289D01*
X134276482Y-134381613D01*
X136794390Y-136899523D01*
X136857711Y-136994289D01*
X137233145Y-137245146D01*
X137564217Y-137311000D01*
X137675999Y-137333235D01*
X137787781Y-137311000D01*
X143660132Y-137311000D01*
X143742191Y-137433809D01*
X143952235Y-137574157D01*
X144200000Y-137623440D01*
X144842308Y-137623440D01*
X145134389Y-137915521D01*
X145197711Y-138010289D01*
X145573145Y-138261146D01*
X146016000Y-138349235D01*
X146127783Y-138327000D01*
X152796985Y-138327000D01*
X152826231Y-138370769D01*
X153367055Y-138732136D01*
X153843969Y-138827000D01*
X154766031Y-138827000D01*
X155242945Y-138732136D01*
X155783769Y-138370769D01*
X156145136Y-137829945D01*
X156272031Y-137192000D01*
X156145136Y-136554055D01*
X155783769Y-136013231D01*
X155647232Y-135922000D01*
X155783769Y-135830769D01*
X156145136Y-135289945D01*
X156272031Y-134652000D01*
X156145136Y-134014055D01*
X155914511Y-133668900D01*
X156062809Y-133569809D01*
X156203157Y-133359765D01*
X156252440Y-133112000D01*
X156252440Y-131112000D01*
X156203157Y-130864235D01*
X156062809Y-130654191D01*
X155852765Y-130513843D01*
X155605000Y-130464560D01*
X153005000Y-130464560D01*
X152757235Y-130513843D01*
X152547191Y-130654191D01*
X152406843Y-130864235D01*
X152357560Y-131112000D01*
X152357560Y-133112000D01*
X152406843Y-133359765D01*
X152547191Y-133569809D01*
X152695489Y-133668900D01*
X152464864Y-134014055D01*
X152337969Y-134652000D01*
X152464864Y-135289945D01*
X152826231Y-135830769D01*
X152962768Y-135922000D01*
X152826231Y-136013231D01*
X152796985Y-136057000D01*
X147623867Y-136057000D01*
X150032286Y-133648583D01*
X150102001Y-133602001D01*
X150188043Y-133473231D01*
X150286552Y-133325801D01*
X150294519Y-133285750D01*
X150335000Y-133082237D01*
X150335000Y-133082234D01*
X150351357Y-133000001D01*
X150335000Y-132917768D01*
X150335000Y-129628711D01*
X150377431Y-129586280D01*
X150535000Y-129205874D01*
X150535000Y-128794126D01*
X150377431Y-128413720D01*
X150086280Y-128122569D01*
X149705874Y-127965000D01*
X149294126Y-127965000D01*
X148913720Y-128122569D01*
X148622569Y-128413720D01*
X148465000Y-128794126D01*
X148465000Y-129205874D01*
X148622569Y-129586280D01*
X148665000Y-129628711D01*
X148665001Y-132654130D01*
X146315140Y-135003992D01*
X146257809Y-134918191D01*
X146248409Y-134911910D01*
X146435000Y-134461439D01*
X146435000Y-133890561D01*
X146216534Y-133363138D01*
X145812862Y-132959466D01*
X145285439Y-132741000D01*
X144714561Y-132741000D01*
X144187138Y-132959466D01*
X143783466Y-133363138D01*
X143565000Y-133890561D01*
X143565000Y-134461439D01*
X143751591Y-134911910D01*
X143742191Y-134918191D01*
X143660132Y-135041000D01*
X138146133Y-135041000D01*
X136135000Y-133029869D01*
X136135000Y-129611781D01*
X136157235Y-129499999D01*
X136135000Y-129388217D01*
X136069146Y-129057145D01*
X135818289Y-128681711D01*
X135723521Y-128618389D01*
X134381613Y-127276482D01*
X134318289Y-127181711D01*
X133942855Y-126930854D01*
X133611783Y-126865000D01*
X133500000Y-126842765D01*
X133388217Y-126865000D01*
X127608147Y-126865000D01*
X127586664Y-126756996D01*
X127449013Y-126550987D01*
X127243004Y-126413336D01*
X127000000Y-126365000D01*
X117000000Y-126365000D01*
X116756996Y-126413336D01*
X116550987Y-126550987D01*
X116413336Y-126756996D01*
X116365000Y-127000000D01*
X116365000Y-149290000D01*
X100710000Y-149290000D01*
X100710000Y-144625050D01*
X103115000Y-144625050D01*
X103115000Y-145374950D01*
X103401974Y-146067767D01*
X103932233Y-146598026D01*
X104625050Y-146885000D01*
X105374950Y-146885000D01*
X106067767Y-146598026D01*
X106598026Y-146067767D01*
X106885000Y-145374950D01*
X106885000Y-144625050D01*
X106598026Y-143932233D01*
X106067767Y-143401974D01*
X105374950Y-143115000D01*
X104625050Y-143115000D01*
X103932233Y-143401974D01*
X103401974Y-143932233D01*
X103115000Y-144625050D01*
X100710000Y-144625050D01*
X100710000Y-132714561D01*
X110065000Y-132714561D01*
X110065000Y-133285439D01*
X110283466Y-133812862D01*
X110687138Y-134216534D01*
X111214561Y-134435000D01*
X111785439Y-134435000D01*
X112312862Y-134216534D01*
X112576155Y-133953241D01*
X112661673Y-134159699D01*
X112840302Y-134338327D01*
X113073691Y-134435000D01*
X113714250Y-134435000D01*
X113873000Y-134276250D01*
X113873000Y-133127000D01*
X114127000Y-133127000D01*
X114127000Y-134276250D01*
X114285750Y-134435000D01*
X114926309Y-134435000D01*
X115159698Y-134338327D01*
X115338327Y-134159699D01*
X115435000Y-133926310D01*
X115435000Y-133285750D01*
X115276250Y-133127000D01*
X114127000Y-133127000D01*
X113873000Y-133127000D01*
X113853000Y-133127000D01*
X113853000Y-132873000D01*
X113873000Y-132873000D01*
X113873000Y-131723750D01*
X114127000Y-131723750D01*
X114127000Y-132873000D01*
X115276250Y-132873000D01*
X115435000Y-132714250D01*
X115435000Y-132073690D01*
X115338327Y-131840301D01*
X115159698Y-131661673D01*
X114926309Y-131565000D01*
X114285750Y-131565000D01*
X114127000Y-131723750D01*
X113873000Y-131723750D01*
X113714250Y-131565000D01*
X113073691Y-131565000D01*
X112840302Y-131661673D01*
X112661673Y-131840301D01*
X112576155Y-132046759D01*
X112312862Y-131783466D01*
X111785439Y-131565000D01*
X111214561Y-131565000D01*
X110687138Y-131783466D01*
X110283466Y-132187138D01*
X110065000Y-132714561D01*
X100710000Y-132714561D01*
X100710000Y-115790000D01*
X102235908Y-115790000D01*
X102351161Y-116369418D01*
X102679375Y-116860625D01*
X102977761Y-117060000D01*
X102679375Y-117259375D01*
X102351161Y-117750582D01*
X102235908Y-118330000D01*
X102351161Y-118909418D01*
X102679375Y-119400625D01*
X102965001Y-119591474D01*
X102965001Y-119672684D01*
X102949622Y-119750000D01*
X103010546Y-120056291D01*
X103140251Y-120250408D01*
X103140254Y-120250411D01*
X103184048Y-120315953D01*
X103249590Y-120359747D01*
X103890253Y-121000411D01*
X103934047Y-121065953D01*
X103999589Y-121109747D01*
X103999591Y-121109749D01*
X104074625Y-121159885D01*
X104193708Y-121239454D01*
X104422684Y-121285000D01*
X104422688Y-121285000D01*
X104499999Y-121300378D01*
X104577310Y-121285000D01*
X115422688Y-121285000D01*
X115500000Y-121300378D01*
X115577312Y-121285000D01*
X115577316Y-121285000D01*
X115806292Y-121239454D01*
X116065953Y-121065953D01*
X116109749Y-121000408D01*
X117126031Y-119984126D01*
X132465000Y-119984126D01*
X132465000Y-120395874D01*
X132622569Y-120776280D01*
X132913720Y-121067431D01*
X133294126Y-121225000D01*
X133544133Y-121225000D01*
X140465000Y-128145868D01*
X140465000Y-128205874D01*
X140622569Y-128586280D01*
X140913720Y-128877431D01*
X141294126Y-129035000D01*
X141705874Y-129035000D01*
X142086280Y-128877431D01*
X142377431Y-128586280D01*
X142535000Y-128205874D01*
X142535000Y-127794126D01*
X142377431Y-127413720D01*
X142086280Y-127122569D01*
X141705874Y-126965000D01*
X141645868Y-126965000D01*
X134443081Y-119762214D01*
X134377431Y-119603720D01*
X134086280Y-119312569D01*
X133705874Y-119155000D01*
X133294126Y-119155000D01*
X132913720Y-119312569D01*
X132622569Y-119603720D01*
X132465000Y-119984126D01*
X117126031Y-119984126D01*
X119325158Y-117785000D01*
X121422688Y-117785000D01*
X121500000Y-117800378D01*
X121577312Y-117785000D01*
X121577316Y-117785000D01*
X121806292Y-117739454D01*
X122065953Y-117565953D01*
X122109749Y-117500408D01*
X123075158Y-116535000D01*
X123205874Y-116535000D01*
X123586280Y-116377431D01*
X123877431Y-116086280D01*
X124035000Y-115705874D01*
X124035000Y-115294126D01*
X123877431Y-114913720D01*
X123748711Y-114785000D01*
X123922688Y-114785000D01*
X124000000Y-114800378D01*
X124077312Y-114785000D01*
X124077316Y-114785000D01*
X124306292Y-114739454D01*
X124565953Y-114565953D01*
X124609749Y-114500408D01*
X126139292Y-112970866D01*
X126294126Y-113035000D01*
X126705874Y-113035000D01*
X127086280Y-112877431D01*
X127377431Y-112586280D01*
X127535000Y-112205874D01*
X127535000Y-112000000D01*
X134311641Y-112000000D01*
X134427950Y-112584725D01*
X134759170Y-113080430D01*
X135254875Y-113411650D01*
X135692002Y-113498600D01*
X137307998Y-113498600D01*
X137745125Y-113411650D01*
X138240830Y-113080430D01*
X138404821Y-112835000D01*
X147095179Y-112835000D01*
X147259170Y-113080430D01*
X147754875Y-113411650D01*
X148192002Y-113498600D01*
X149807998Y-113498600D01*
X150245125Y-113411650D01*
X150740830Y-113080430D01*
X151072050Y-112584725D01*
X151188359Y-112000000D01*
X151072050Y-111415275D01*
X150740830Y-110919570D01*
X150245125Y-110588350D01*
X149807998Y-110501400D01*
X148192002Y-110501400D01*
X147754875Y-110588350D01*
X147259170Y-110919570D01*
X147095179Y-111165000D01*
X138404821Y-111165000D01*
X138240830Y-110919570D01*
X137745125Y-110588350D01*
X137307998Y-110501400D01*
X135692002Y-110501400D01*
X135254875Y-110588350D01*
X134759170Y-110919570D01*
X134427950Y-111415275D01*
X134311641Y-112000000D01*
X127535000Y-112000000D01*
X127535000Y-111794126D01*
X127377431Y-111413720D01*
X127086280Y-111122569D01*
X126705874Y-110965000D01*
X126294126Y-110965000D01*
X125913720Y-111122569D01*
X125796112Y-111240177D01*
X125693708Y-111260546D01*
X125574625Y-111340115D01*
X125499591Y-111390251D01*
X125499589Y-111390253D01*
X125434047Y-111434047D01*
X125390253Y-111499589D01*
X123674843Y-113215000D01*
X109359391Y-113215000D01*
X109282080Y-113199622D01*
X109204769Y-113215000D01*
X109204765Y-113215000D01*
X108975789Y-113260546D01*
X108856706Y-113340115D01*
X108781672Y-113390251D01*
X108781670Y-113390253D01*
X108716128Y-113434047D01*
X108672334Y-113499589D01*
X107397444Y-114774479D01*
X107360625Y-114719375D01*
X107062239Y-114520000D01*
X107360625Y-114320625D01*
X107688839Y-113829418D01*
X107804092Y-113250000D01*
X107688839Y-112670582D01*
X107360625Y-112179375D01*
X106869418Y-111851161D01*
X106436256Y-111765000D01*
X106143744Y-111765000D01*
X105710582Y-111851161D01*
X105219375Y-112179375D01*
X105207184Y-112197619D01*
X105198157Y-112152235D01*
X105057809Y-111942191D01*
X104847765Y-111801843D01*
X104600000Y-111752560D01*
X102900000Y-111752560D01*
X102652235Y-111801843D01*
X102442191Y-111942191D01*
X102301843Y-112152235D01*
X102252560Y-112400000D01*
X102252560Y-114100000D01*
X102301843Y-114347765D01*
X102442191Y-114557809D01*
X102652235Y-114698157D01*
X102697619Y-114707184D01*
X102679375Y-114719375D01*
X102351161Y-115210582D01*
X102235908Y-115790000D01*
X100710000Y-115790000D01*
X100710000Y-104625050D01*
X103115000Y-104625050D01*
X103115000Y-105374950D01*
X103401974Y-106067767D01*
X103932233Y-106598026D01*
X104625050Y-106885000D01*
X105374950Y-106885000D01*
X106067767Y-106598026D01*
X106598026Y-106067767D01*
X106885000Y-105374950D01*
X106885000Y-104625050D01*
X106598026Y-103932233D01*
X106067767Y-103401974D01*
X105374950Y-103115000D01*
X104625050Y-103115000D01*
X103932233Y-103401974D01*
X103401974Y-103932233D01*
X103115000Y-104625050D01*
X100710000Y-104625050D01*
X100710000Y-101500000D01*
X113373000Y-101500000D01*
X113373000Y-109000000D01*
X113382667Y-109048601D01*
X113410197Y-109089803D01*
X113451399Y-109117333D01*
X113500000Y-109127000D01*
X131500000Y-109127000D01*
X131548601Y-109117333D01*
X131589803Y-109089803D01*
X131617333Y-109048601D01*
X131627000Y-109000000D01*
X131627000Y-107000000D01*
X134311641Y-107000000D01*
X134427950Y-107584725D01*
X134759170Y-108080430D01*
X135254875Y-108411650D01*
X135692002Y-108498600D01*
X137307998Y-108498600D01*
X137745125Y-108411650D01*
X138240830Y-108080430D01*
X138404821Y-107835000D01*
X147095179Y-107835000D01*
X147259170Y-108080430D01*
X147754875Y-108411650D01*
X148192002Y-108498600D01*
X149807998Y-108498600D01*
X149949906Y-108470373D01*
X151665000Y-110185468D01*
X151665001Y-117654130D01*
X146354133Y-122965000D01*
X146294126Y-122965000D01*
X145913720Y-123122569D01*
X145622569Y-123413720D01*
X145465000Y-123794126D01*
X145465000Y-124205874D01*
X145622569Y-124586280D01*
X145913720Y-124877431D01*
X146294126Y-125035000D01*
X146705874Y-125035000D01*
X147086280Y-124877431D01*
X147377431Y-124586280D01*
X147535000Y-124205874D01*
X147535000Y-124145867D01*
X153032286Y-118648583D01*
X153102001Y-118602001D01*
X153286552Y-118325801D01*
X153335000Y-118082237D01*
X153335000Y-118082234D01*
X153351357Y-118000001D01*
X153335000Y-117917768D01*
X153335000Y-109921837D01*
X153351358Y-109839600D01*
X153286552Y-109513799D01*
X153148584Y-109307316D01*
X153102001Y-109237599D01*
X153032283Y-109191015D01*
X151130773Y-107289505D01*
X151188359Y-107000000D01*
X151072050Y-106415275D01*
X150740830Y-105919570D01*
X150245125Y-105588350D01*
X149807998Y-105501400D01*
X148192002Y-105501400D01*
X147754875Y-105588350D01*
X147259170Y-105919570D01*
X147095179Y-106165000D01*
X138404821Y-106165000D01*
X138240830Y-105919570D01*
X137745125Y-105588350D01*
X137307998Y-105501400D01*
X135692002Y-105501400D01*
X135254875Y-105588350D01*
X134759170Y-105919570D01*
X134427950Y-106415275D01*
X134311641Y-107000000D01*
X131627000Y-107000000D01*
X131627000Y-104625050D01*
X153115000Y-104625050D01*
X153115000Y-105374950D01*
X153401974Y-106067767D01*
X153932233Y-106598026D01*
X154625050Y-106885000D01*
X155374950Y-106885000D01*
X156067767Y-106598026D01*
X156598026Y-106067767D01*
X156885000Y-105374950D01*
X156885000Y-104625050D01*
X156598026Y-103932233D01*
X156067767Y-103401974D01*
X155374950Y-103115000D01*
X154625050Y-103115000D01*
X153932233Y-103401974D01*
X153401974Y-103932233D01*
X153115000Y-104625050D01*
X131627000Y-104625050D01*
X131627000Y-101500000D01*
X131617333Y-101451399D01*
X131589803Y-101410197D01*
X131548601Y-101382667D01*
X131500000Y-101373000D01*
X113500000Y-101373000D01*
X113451399Y-101382667D01*
X113410197Y-101410197D01*
X113382667Y-101451399D01*
X113373000Y-101500000D01*
X100710000Y-101500000D01*
X100710000Y-100710000D01*
X159290001Y-100710000D01*
X159290000Y-149290000D01*
X159290000Y-149290000D01*
G37*
X159290000Y-149290000D02*
X134420713Y-149290000D01*
X134569146Y-149067854D01*
X134635000Y-148736782D01*
X134635000Y-147963217D01*
X134569146Y-147632145D01*
X134318289Y-147256711D01*
X133942854Y-147005854D01*
X133500000Y-146917765D01*
X133057145Y-147005854D01*
X132681711Y-147256711D01*
X132635000Y-147326619D01*
X132635000Y-146760000D01*
X132759324Y-146760000D01*
X133083100Y-146695597D01*
X133450265Y-146450265D01*
X133695597Y-146083100D01*
X133781746Y-145650000D01*
X133695597Y-145216900D01*
X133450265Y-144849735D01*
X133114001Y-144625050D01*
X153115000Y-144625050D01*
X153115000Y-145374950D01*
X153401974Y-146067767D01*
X153932233Y-146598026D01*
X154625050Y-146885000D01*
X155374950Y-146885000D01*
X156067767Y-146598026D01*
X156598026Y-146067767D01*
X156885000Y-145374950D01*
X156885000Y-144625050D01*
X156598026Y-143932233D01*
X156067767Y-143401974D01*
X155374950Y-143115000D01*
X154625050Y-143115000D01*
X153932233Y-143401974D01*
X153401974Y-143932233D01*
X153115000Y-144625050D01*
X133114001Y-144625050D01*
X133083100Y-144604403D01*
X132759324Y-144540000D01*
X132635000Y-144540000D01*
X132635000Y-139008015D01*
X132678769Y-138978769D01*
X133040136Y-138437945D01*
X133135000Y-137961030D01*
X133135000Y-137038969D01*
X133040136Y-136562055D01*
X132678769Y-136021231D01*
X132635000Y-135991986D01*
X132635000Y-129135000D01*
X133029869Y-129135000D01*
X133865001Y-129970133D01*
X133865000Y-133388217D01*
X133842765Y-133500000D01*
X133865000Y-133611782D01*
X133930854Y-133942854D01*
X134181711Y-134318289D01*
X134276482Y-134381613D01*
X136794390Y-136899523D01*
X136857711Y-136994289D01*
X137233145Y-137245146D01*
X137564217Y-137311000D01*
X137675999Y-137333235D01*
X137787781Y-137311000D01*
X143660132Y-137311000D01*
X143742191Y-137433809D01*
X143952235Y-137574157D01*
X144200000Y-137623440D01*
X144842308Y-137623440D01*
X145134389Y-137915521D01*
X145197711Y-138010289D01*
X145573145Y-138261146D01*
X146016000Y-138349235D01*
X146127783Y-138327000D01*
X152796985Y-138327000D01*
X152826231Y-138370769D01*
X153367055Y-138732136D01*
X153843969Y-138827000D01*
X154766031Y-138827000D01*
X155242945Y-138732136D01*
X155783769Y-138370769D01*
X156145136Y-137829945D01*
X156272031Y-137192000D01*
X156145136Y-136554055D01*
X155783769Y-136013231D01*
X155647232Y-135922000D01*
X155783769Y-135830769D01*
X156145136Y-135289945D01*
X156272031Y-134652000D01*
X156145136Y-134014055D01*
X155914511Y-133668900D01*
X156062809Y-133569809D01*
X156203157Y-133359765D01*
X156252440Y-133112000D01*
X156252440Y-131112000D01*
X156203157Y-130864235D01*
X156062809Y-130654191D01*
X155852765Y-130513843D01*
X155605000Y-130464560D01*
X153005000Y-130464560D01*
X152757235Y-130513843D01*
X152547191Y-130654191D01*
X152406843Y-130864235D01*
X152357560Y-131112000D01*
X152357560Y-133112000D01*
X152406843Y-133359765D01*
X152547191Y-133569809D01*
X152695489Y-133668900D01*
X152464864Y-134014055D01*
X152337969Y-134652000D01*
X152464864Y-135289945D01*
X152826231Y-135830769D01*
X152962768Y-135922000D01*
X152826231Y-136013231D01*
X152796985Y-136057000D01*
X147623867Y-136057000D01*
X150032286Y-133648583D01*
X150102001Y-133602001D01*
X150188043Y-133473231D01*
X150286552Y-133325801D01*
X150294519Y-133285750D01*
X150335000Y-133082237D01*
X150335000Y-133082234D01*
X150351357Y-133000001D01*
X150335000Y-132917768D01*
X150335000Y-129628711D01*
X150377431Y-129586280D01*
X150535000Y-129205874D01*
X150535000Y-128794126D01*
X150377431Y-128413720D01*
X150086280Y-128122569D01*
X149705874Y-127965000D01*
X149294126Y-127965000D01*
X148913720Y-128122569D01*
X148622569Y-128413720D01*
X148465000Y-128794126D01*
X148465000Y-129205874D01*
X148622569Y-129586280D01*
X148665000Y-129628711D01*
X148665001Y-132654130D01*
X146315140Y-135003992D01*
X146257809Y-134918191D01*
X146248409Y-134911910D01*
X146435000Y-134461439D01*
X146435000Y-133890561D01*
X146216534Y-133363138D01*
X145812862Y-132959466D01*
X145285439Y-132741000D01*
X144714561Y-132741000D01*
X144187138Y-132959466D01*
X143783466Y-133363138D01*
X143565000Y-133890561D01*
X143565000Y-134461439D01*
X143751591Y-134911910D01*
X143742191Y-134918191D01*
X143660132Y-135041000D01*
X138146133Y-135041000D01*
X136135000Y-133029869D01*
X136135000Y-129611781D01*
X136157235Y-129499999D01*
X136135000Y-129388217D01*
X136069146Y-129057145D01*
X135818289Y-128681711D01*
X135723521Y-128618389D01*
X134381613Y-127276482D01*
X134318289Y-127181711D01*
X133942855Y-126930854D01*
X133611783Y-126865000D01*
X133500000Y-126842765D01*
X133388217Y-126865000D01*
X127608147Y-126865000D01*
X127586664Y-126756996D01*
X127449013Y-126550987D01*
X127243004Y-126413336D01*
X127000000Y-126365000D01*
X117000000Y-126365000D01*
X116756996Y-126413336D01*
X116550987Y-126550987D01*
X116413336Y-126756996D01*
X116365000Y-127000000D01*
X116365000Y-149290000D01*
X100710000Y-149290000D01*
X100710000Y-144625050D01*
X103115000Y-144625050D01*
X103115000Y-145374950D01*
X103401974Y-146067767D01*
X103932233Y-146598026D01*
X104625050Y-146885000D01*
X105374950Y-146885000D01*
X106067767Y-146598026D01*
X106598026Y-146067767D01*
X106885000Y-145374950D01*
X106885000Y-144625050D01*
X106598026Y-143932233D01*
X106067767Y-143401974D01*
X105374950Y-143115000D01*
X104625050Y-143115000D01*
X103932233Y-143401974D01*
X103401974Y-143932233D01*
X103115000Y-144625050D01*
X100710000Y-144625050D01*
X100710000Y-132714561D01*
X110065000Y-132714561D01*
X110065000Y-133285439D01*
X110283466Y-133812862D01*
X110687138Y-134216534D01*
X111214561Y-134435000D01*
X111785439Y-134435000D01*
X112312862Y-134216534D01*
X112576155Y-133953241D01*
X112661673Y-134159699D01*
X112840302Y-134338327D01*
X113073691Y-134435000D01*
X113714250Y-134435000D01*
X113873000Y-134276250D01*
X113873000Y-133127000D01*
X114127000Y-133127000D01*
X114127000Y-134276250D01*
X114285750Y-134435000D01*
X114926309Y-134435000D01*
X115159698Y-134338327D01*
X115338327Y-134159699D01*
X115435000Y-133926310D01*
X115435000Y-133285750D01*
X115276250Y-133127000D01*
X114127000Y-133127000D01*
X113873000Y-133127000D01*
X113853000Y-133127000D01*
X113853000Y-132873000D01*
X113873000Y-132873000D01*
X113873000Y-131723750D01*
X114127000Y-131723750D01*
X114127000Y-132873000D01*
X115276250Y-132873000D01*
X115435000Y-132714250D01*
X115435000Y-132073690D01*
X115338327Y-131840301D01*
X115159698Y-131661673D01*
X114926309Y-131565000D01*
X114285750Y-131565000D01*
X114127000Y-131723750D01*
X113873000Y-131723750D01*
X113714250Y-131565000D01*
X113073691Y-131565000D01*
X112840302Y-131661673D01*
X112661673Y-131840301D01*
X112576155Y-132046759D01*
X112312862Y-131783466D01*
X111785439Y-131565000D01*
X111214561Y-131565000D01*
X110687138Y-131783466D01*
X110283466Y-132187138D01*
X110065000Y-132714561D01*
X100710000Y-132714561D01*
X100710000Y-115790000D01*
X102235908Y-115790000D01*
X102351161Y-116369418D01*
X102679375Y-116860625D01*
X102977761Y-117060000D01*
X102679375Y-117259375D01*
X102351161Y-117750582D01*
X102235908Y-118330000D01*
X102351161Y-118909418D01*
X102679375Y-119400625D01*
X102965001Y-119591474D01*
X102965001Y-119672684D01*
X102949622Y-119750000D01*
X103010546Y-120056291D01*
X103140251Y-120250408D01*
X103140254Y-120250411D01*
X103184048Y-120315953D01*
X103249590Y-120359747D01*
X103890253Y-121000411D01*
X103934047Y-121065953D01*
X103999589Y-121109747D01*
X103999591Y-121109749D01*
X104074625Y-121159885D01*
X104193708Y-121239454D01*
X104422684Y-121285000D01*
X104422688Y-121285000D01*
X104499999Y-121300378D01*
X104577310Y-121285000D01*
X115422688Y-121285000D01*
X115500000Y-121300378D01*
X115577312Y-121285000D01*
X115577316Y-121285000D01*
X115806292Y-121239454D01*
X116065953Y-121065953D01*
X116109749Y-121000408D01*
X117126031Y-119984126D01*
X132465000Y-119984126D01*
X132465000Y-120395874D01*
X132622569Y-120776280D01*
X132913720Y-121067431D01*
X133294126Y-121225000D01*
X133544133Y-121225000D01*
X140465000Y-128145868D01*
X140465000Y-128205874D01*
X140622569Y-128586280D01*
X140913720Y-128877431D01*
X141294126Y-129035000D01*
X141705874Y-129035000D01*
X142086280Y-128877431D01*
X142377431Y-128586280D01*
X142535000Y-128205874D01*
X142535000Y-127794126D01*
X142377431Y-127413720D01*
X142086280Y-127122569D01*
X141705874Y-126965000D01*
X141645868Y-126965000D01*
X134443081Y-119762214D01*
X134377431Y-119603720D01*
X134086280Y-119312569D01*
X133705874Y-119155000D01*
X133294126Y-119155000D01*
X132913720Y-119312569D01*
X132622569Y-119603720D01*
X132465000Y-119984126D01*
X117126031Y-119984126D01*
X119325158Y-117785000D01*
X121422688Y-117785000D01*
X121500000Y-117800378D01*
X121577312Y-117785000D01*
X121577316Y-117785000D01*
X121806292Y-117739454D01*
X122065953Y-117565953D01*
X122109749Y-117500408D01*
X123075158Y-116535000D01*
X123205874Y-116535000D01*
X123586280Y-116377431D01*
X123877431Y-116086280D01*
X124035000Y-115705874D01*
X124035000Y-115294126D01*
X123877431Y-114913720D01*
X123748711Y-114785000D01*
X123922688Y-114785000D01*
X124000000Y-114800378D01*
X124077312Y-114785000D01*
X124077316Y-114785000D01*
X124306292Y-114739454D01*
X124565953Y-114565953D01*
X124609749Y-114500408D01*
X126139292Y-112970866D01*
X126294126Y-113035000D01*
X126705874Y-113035000D01*
X127086280Y-112877431D01*
X127377431Y-112586280D01*
X127535000Y-112205874D01*
X127535000Y-112000000D01*
X134311641Y-112000000D01*
X134427950Y-112584725D01*
X134759170Y-113080430D01*
X135254875Y-113411650D01*
X135692002Y-113498600D01*
X137307998Y-113498600D01*
X137745125Y-113411650D01*
X138240830Y-113080430D01*
X138404821Y-112835000D01*
X147095179Y-112835000D01*
X147259170Y-113080430D01*
X147754875Y-113411650D01*
X148192002Y-113498600D01*
X149807998Y-113498600D01*
X150245125Y-113411650D01*
X150740830Y-113080430D01*
X151072050Y-112584725D01*
X151188359Y-112000000D01*
X151072050Y-111415275D01*
X150740830Y-110919570D01*
X150245125Y-110588350D01*
X149807998Y-110501400D01*
X148192002Y-110501400D01*
X147754875Y-110588350D01*
X147259170Y-110919570D01*
X147095179Y-111165000D01*
X138404821Y-111165000D01*
X138240830Y-110919570D01*
X137745125Y-110588350D01*
X137307998Y-110501400D01*
X135692002Y-110501400D01*
X135254875Y-110588350D01*
X134759170Y-110919570D01*
X134427950Y-111415275D01*
X134311641Y-112000000D01*
X127535000Y-112000000D01*
X127535000Y-111794126D01*
X127377431Y-111413720D01*
X127086280Y-111122569D01*
X126705874Y-110965000D01*
X126294126Y-110965000D01*
X125913720Y-111122569D01*
X125796112Y-111240177D01*
X125693708Y-111260546D01*
X125574625Y-111340115D01*
X125499591Y-111390251D01*
X125499589Y-111390253D01*
X125434047Y-111434047D01*
X125390253Y-111499589D01*
X123674843Y-113215000D01*
X109359391Y-113215000D01*
X109282080Y-113199622D01*
X109204769Y-113215000D01*
X109204765Y-113215000D01*
X108975789Y-113260546D01*
X108856706Y-113340115D01*
X108781672Y-113390251D01*
X108781670Y-113390253D01*
X108716128Y-113434047D01*
X108672334Y-113499589D01*
X107397444Y-114774479D01*
X107360625Y-114719375D01*
X107062239Y-114520000D01*
X107360625Y-114320625D01*
X107688839Y-113829418D01*
X107804092Y-113250000D01*
X107688839Y-112670582D01*
X107360625Y-112179375D01*
X106869418Y-111851161D01*
X106436256Y-111765000D01*
X106143744Y-111765000D01*
X105710582Y-111851161D01*
X105219375Y-112179375D01*
X105207184Y-112197619D01*
X105198157Y-112152235D01*
X105057809Y-111942191D01*
X104847765Y-111801843D01*
X104600000Y-111752560D01*
X102900000Y-111752560D01*
X102652235Y-111801843D01*
X102442191Y-111942191D01*
X102301843Y-112152235D01*
X102252560Y-112400000D01*
X102252560Y-114100000D01*
X102301843Y-114347765D01*
X102442191Y-114557809D01*
X102652235Y-114698157D01*
X102697619Y-114707184D01*
X102679375Y-114719375D01*
X102351161Y-115210582D01*
X102235908Y-115790000D01*
X100710000Y-115790000D01*
X100710000Y-104625050D01*
X103115000Y-104625050D01*
X103115000Y-105374950D01*
X103401974Y-106067767D01*
X103932233Y-106598026D01*
X104625050Y-106885000D01*
X105374950Y-106885000D01*
X106067767Y-106598026D01*
X106598026Y-106067767D01*
X106885000Y-105374950D01*
X106885000Y-104625050D01*
X106598026Y-103932233D01*
X106067767Y-103401974D01*
X105374950Y-103115000D01*
X104625050Y-103115000D01*
X103932233Y-103401974D01*
X103401974Y-103932233D01*
X103115000Y-104625050D01*
X100710000Y-104625050D01*
X100710000Y-101500000D01*
X113373000Y-101500000D01*
X113373000Y-109000000D01*
X113382667Y-109048601D01*
X113410197Y-109089803D01*
X113451399Y-109117333D01*
X113500000Y-109127000D01*
X131500000Y-109127000D01*
X131548601Y-109117333D01*
X131589803Y-109089803D01*
X131617333Y-109048601D01*
X131627000Y-109000000D01*
X131627000Y-107000000D01*
X134311641Y-107000000D01*
X134427950Y-107584725D01*
X134759170Y-108080430D01*
X135254875Y-108411650D01*
X135692002Y-108498600D01*
X137307998Y-108498600D01*
X137745125Y-108411650D01*
X138240830Y-108080430D01*
X138404821Y-107835000D01*
X147095179Y-107835000D01*
X147259170Y-108080430D01*
X147754875Y-108411650D01*
X148192002Y-108498600D01*
X149807998Y-108498600D01*
X149949906Y-108470373D01*
X151665000Y-110185468D01*
X151665001Y-117654130D01*
X146354133Y-122965000D01*
X146294126Y-122965000D01*
X145913720Y-123122569D01*
X145622569Y-123413720D01*
X145465000Y-123794126D01*
X145465000Y-124205874D01*
X145622569Y-124586280D01*
X145913720Y-124877431D01*
X146294126Y-125035000D01*
X146705874Y-125035000D01*
X147086280Y-124877431D01*
X147377431Y-124586280D01*
X147535000Y-124205874D01*
X147535000Y-124145867D01*
X153032286Y-118648583D01*
X153102001Y-118602001D01*
X153286552Y-118325801D01*
X153335000Y-118082237D01*
X153335000Y-118082234D01*
X153351357Y-118000001D01*
X153335000Y-117917768D01*
X153335000Y-109921837D01*
X153351358Y-109839600D01*
X153286552Y-109513799D01*
X153148584Y-109307316D01*
X153102001Y-109237599D01*
X153032283Y-109191015D01*
X151130773Y-107289505D01*
X151188359Y-107000000D01*
X151072050Y-106415275D01*
X150740830Y-105919570D01*
X150245125Y-105588350D01*
X149807998Y-105501400D01*
X148192002Y-105501400D01*
X147754875Y-105588350D01*
X147259170Y-105919570D01*
X147095179Y-106165000D01*
X138404821Y-106165000D01*
X138240830Y-105919570D01*
X137745125Y-105588350D01*
X137307998Y-105501400D01*
X135692002Y-105501400D01*
X135254875Y-105588350D01*
X134759170Y-105919570D01*
X134427950Y-106415275D01*
X134311641Y-107000000D01*
X131627000Y-107000000D01*
X131627000Y-104625050D01*
X153115000Y-104625050D01*
X153115000Y-105374950D01*
X153401974Y-106067767D01*
X153932233Y-106598026D01*
X154625050Y-106885000D01*
X155374950Y-106885000D01*
X156067767Y-106598026D01*
X156598026Y-106067767D01*
X156885000Y-105374950D01*
X156885000Y-104625050D01*
X156598026Y-103932233D01*
X156067767Y-103401974D01*
X155374950Y-103115000D01*
X154625050Y-103115000D01*
X153932233Y-103401974D01*
X153401974Y-103932233D01*
X153115000Y-104625050D01*
X131627000Y-104625050D01*
X131627000Y-101500000D01*
X131617333Y-101451399D01*
X131589803Y-101410197D01*
X131548601Y-101382667D01*
X131500000Y-101373000D01*
X113500000Y-101373000D01*
X113451399Y-101382667D01*
X113410197Y-101410197D01*
X113382667Y-101451399D01*
X113373000Y-101500000D01*
X100710000Y-101500000D01*
X100710000Y-100710000D01*
X159290001Y-100710000D01*
X159290000Y-149290000D01*
G04 #@! TD*
M02*
